<svg width="18" height="12" viewBox="0 0 18 12" fill="none" xmlns="http://www.w3.org/2000/svg">
<g clip-path="url(#clip0_190_801)">
<path d="M17 1H1V11H17V1Z" fill="white" style="fill:white;fill-opacity:1;"/>
<path d="M17 1H5V11H17V1Z" fill="#01411C" style="fill:#01411C;fill:color(display-p3 0.0039 0.2549 0.1098);fill-opacity:1;"/>
<path d="M11 9C12.7674 9 14.2 7.65685 14.2 6C14.2 4.34315 12.7674 3 11 3C9.23274 3 7.80005 4.34315 7.80005 6C7.80005 7.65685 9.23274 9 11 9Z" fill="white" style="fill:white;fill-opacity:1;"/>
<path d="M13.7668 7.37372C14.9776 6.36469 15.0867 4.62649 14.0104 3.49134C12.9341 2.35619 11.08 2.25394 9.86916 3.26297C8.65833 4.27199 8.54927 6.01019 9.62556 7.14534C10.7019 8.28049 12.5559 8.38274 13.7668 7.37372Z" fill="#01411C" style="fill:#01411C;fill:color(display-p3 0.0039 0.2549 0.1098);fill-opacity:1;"/>
<path d="M12.1669 3.75521L13.5149 5.17687L11.533 4.7695L13.3918 4.00697L12.3661 5.64814L12.1669 3.75521Z" fill="white" style="fill:white;fill-opacity:1;"/>
</g>
<rect x="0.95" y="0.95" width="16.1" height="10.1" stroke="black" stroke-opacity="0.25" style="stroke:black;stroke-opacity:0.25;" stroke-width="0.1"/>
<defs>
<clipPath id="clip0_190_801">
<rect x="1" y="1" width="16" height="10" fill="white" style="fill:white;fill-opacity:1;"/>
</clipPath>
</defs>
</svg>
