<svg width="16" height="11" viewBox="0 0 16 11" fill="none" xmlns="http://www.w3.org/2000/svg">
<g clip-path="url(#clip0_190_605)">
<path d="M16 0H0V11H16V0Z" fill="#FF9933" style="fill:#FF9933;fill:color(display-p3 1.0000 0.6000 0.2000);fill-opacity:1;"/>
<path d="M16 3.66663H0V7.33329H16V3.66663Z" fill="white" style="fill:white;fill-opacity:1;"/>
<path d="M16 7.33337H0V11H16V7.33337Z" fill="#128807" style="fill:#128807;fill:color(display-p3 0.0706 0.5333 0.0275);fill-opacity:1;"/>
<path d="M8.0001 6.96666C8.78557 6.96666 9.42233 6.31001 9.42233 5.49999C9.42233 4.68997 8.78557 4.03333 8.0001 4.03333C7.21463 4.03333 6.57788 4.68997 6.57788 5.49999C6.57788 6.31001 7.21463 6.96666 8.0001 6.96666Z" fill="#000088" style="fill:#000088;fill:color(display-p3 0.0000 0.0000 0.5333);fill-opacity:1;"/>
<path d="M8.00006 6.78334C8.68735 6.78334 9.2445 6.20877 9.2445 5.50001C9.2445 4.79124 8.68735 4.21667 8.00006 4.21667C7.31277 4.21667 6.75562 4.79124 6.75562 5.50001C6.75562 6.20877 7.31277 6.78334 8.00006 6.78334Z" fill="white" style="fill:white;fill-opacity:1;"/>
<path d="M8.00011 5.75674C8.13757 5.75674 8.249 5.64183 8.249 5.50007C8.249 5.35832 8.13757 5.24341 8.00011 5.24341C7.86265 5.24341 7.75122 5.35832 7.75122 5.50007C7.75122 5.64183 7.86265 5.75674 8.00011 5.75674Z" fill="#000088" style="fill:#000088;fill:color(display-p3 0.0000 0.0000 0.5333);fill-opacity:1;"/>
<path d="M9.22562 5.73107C9.25969 5.7357 9.29095 5.71096 9.29543 5.67583C9.29992 5.64069 9.27594 5.60846 9.24187 5.60383C9.2078 5.59921 9.17654 5.62394 9.17205 5.65908C9.16757 5.69421 9.19155 5.72644 9.22562 5.73107Z" fill="#000088" style="fill:#000088;fill:color(display-p3 0.0000 0.0000 0.5333);fill-opacity:1;"/>
<path d="M7.99994 6.78327L8.04261 6.01327L7.99994 5.64661L7.95728 6.01327L7.99994 6.78327Z" fill="#000088" style="fill:#000088;fill:color(display-p3 0.0000 0.0000 0.5333);fill-opacity:1;"/>
<path d="M9.12593 6.04998C9.15783 6.06374 9.19423 6.04853 9.20723 6.01599C9.22023 5.98345 9.2049 5.94591 9.173 5.93215C9.1411 5.91838 9.1047 5.9336 9.0917 5.96614C9.0787 5.99868 9.09403 6.03621 9.12593 6.04998Z" fill="#000088" style="fill:#000088;fill:color(display-p3 0.0000 0.0000 0.5333);fill-opacity:1;"/>
<path d="M7.67859 6.73926L7.91276 6.00762L7.96221 5.64195L7.82868 5.98422L7.67859 6.73926Z" fill="#000088" style="fill:#000088;fill:color(display-p3 0.0000 0.0000 0.5333);fill-opacity:1;"/>
<path d="M8.94966 6.3318C8.9771 6.35357 9.01616 6.34859 9.03691 6.32068C9.05765 6.29276 9.05222 6.25248 9.02478 6.23071C8.99734 6.20893 8.95828 6.21391 8.93754 6.24183C8.9168 6.26975 8.92222 6.31003 8.94966 6.3318Z" fill="#000088" style="fill:#000088;fill:color(display-p3 0.0000 0.0000 0.5333);fill-opacity:1;"/>
<path d="M7.37817 6.61099L7.78825 5.96703L7.92814 5.62735L7.71321 5.92228L7.37817 6.61099Z" fill="#000088" style="fill:#000088;fill:color(display-p3 0.0000 0.0000 0.5333);fill-opacity:1;"/>
<path d="M8.70853 6.55693C8.7296 6.58522 8.76866 6.59082 8.79578 6.56942C8.82289 6.54803 8.82778 6.50775 8.80671 6.47945C8.78564 6.45116 8.74658 6.44557 8.71947 6.46696C8.69236 6.48835 8.68746 6.52863 8.70853 6.55693Z" fill="#000088" style="fill:#000088;fill:color(display-p3 0.0000 0.0000 0.5333);fill-opacity:1;"/>
<path d="M7.1205 6.40708L7.67852 5.89468L7.89918 5.60415L7.61747 5.83164L7.1205 6.40708Z" fill="#000088" style="fill:#000088;fill:color(display-p3 0.0000 0.0000 0.5333);fill-opacity:1;"/>
<path d="M8.4185 6.71058C8.43145 6.74311 8.46785 6.75832 8.4998 6.74454C8.53175 6.73077 8.54714 6.69324 8.53419 6.66071C8.52124 6.62818 8.48484 6.61297 8.4529 6.62674C8.42095 6.64052 8.40555 6.67805 8.4185 6.71058Z" fill="#000088" style="fill:#000088;fill:color(display-p3 0.0000 0.0000 0.5333);fill-opacity:1;"/>
<path d="M6.92191 6.14219L7.59 5.79389L7.87718 5.57267L7.54805 5.71887L6.92191 6.14219Z" fill="#000088" style="fill:#000088;fill:color(display-p3 0.0000 0.0000 0.5333);fill-opacity:1;"/>
<path d="M8.10039 6.78105C8.10466 6.81599 8.13592 6.84039 8.1702 6.83556C8.20448 6.83073 8.22881 6.7985 8.22454 6.76357C8.22026 6.72864 8.18901 6.70423 8.15472 6.70906C8.12044 6.71389 8.09612 6.74612 8.10039 6.78105Z" fill="#000088" style="fill:#000088;fill:color(display-p3 0.0000 0.0000 0.5333);fill-opacity:1;"/>
<path d="M6.79774 5.83285L7.53012 5.67419L7.86303 5.53707L7.50865 5.59077L6.79774 5.83285Z" fill="#000088" style="fill:#000088;fill:color(display-p3 0.0000 0.0000 0.5333);fill-opacity:1;"/>
<path d="M7.77626 6.76445C7.77161 6.79984 7.79534 6.83208 7.82925 6.83644C7.86315 6.84081 7.89441 6.81566 7.89906 6.78027C7.9037 6.74488 7.87998 6.71265 7.84607 6.70828C7.81216 6.70391 7.78091 6.72906 7.77626 6.76445Z" fill="#000088" style="fill:#000088;fill:color(display-p3 0.0000 0.0000 0.5333);fill-opacity:1;"/>
<path d="M6.75556 5.50554L7.50195 5.53634L7.85755 5.49433L7.50219 5.45955L6.75556 5.50554Z" fill="#000088" style="fill:#000088;fill:color(display-p3 0.0000 0.0000 0.5333);fill-opacity:1;"/>
<path d="M7.4663 6.66136C7.45309 6.69422 7.46808 6.73176 7.49977 6.7452C7.53146 6.75863 7.56786 6.74289 7.58107 6.71002C7.59427 6.67716 7.57929 6.63962 7.5476 6.62618C7.51591 6.61275 7.47951 6.62849 7.4663 6.66136Z" fill="#000088" style="fill:#000088;fill:color(display-p3 0.0000 0.0000 0.5333);fill-opacity:1;"/>
<path d="M6.79792 5.16853L7.50789 5.4101L7.8624 5.46146L7.53015 5.32384L6.79792 5.16853Z" fill="#000088" style="fill:#000088;fill:color(display-p3 0.0000 0.0000 0.5333);fill-opacity:1;"/>
<path d="M7.1929 6.47876C7.17216 6.50667 7.1776 6.54695 7.20504 6.56873C7.23248 6.5905 7.27154 6.58553 7.29228 6.55762C7.31302 6.52971 7.30759 6.48943 7.28014 6.46765C7.2527 6.44587 7.21364 6.45085 7.1929 6.47876Z" fill="#000088" style="fill:#000088;fill:color(display-p3 0.0000 0.0000 0.5333);fill-opacity:1;"/>
<path d="M6.92195 4.85775L7.54809 5.28107L7.87722 5.42728L7.59004 5.20605L6.92195 4.85775Z" fill="#000088" style="fill:#000088;fill:color(display-p3 0.0000 0.0000 0.5333);fill-opacity:1;"/>
<path d="M6.97466 6.22994C6.94757 6.25131 6.94271 6.29159 6.96381 6.31991C6.9849 6.34823 7.02396 6.35387 7.05105 6.33251C7.07814 6.31114 7.083 6.27086 7.0619 6.24254C7.04081 6.21422 7.00175 6.20858 6.97466 6.22994Z" fill="#000088" style="fill:#000088;fill:color(display-p3 0.0000 0.0000 0.5333);fill-opacity:1;"/>
<path d="M7.11973 4.59206L7.61848 5.16781L7.89992 5.39674L7.67801 5.10652L7.11973 4.59206Z" fill="#000088" style="fill:#000088;fill:color(display-p3 0.0000 0.0000 0.5333);fill-opacity:1;"/>
<path d="M6.82631 5.93157C6.79468 5.94496 6.77981 5.9825 6.79308 6.01541C6.80635 6.04832 6.84275 6.06414 6.87438 6.05074C6.906 6.03735 6.92088 5.99981 6.90761 5.9669C6.89434 5.934 6.85794 5.91818 6.82631 5.93157Z" fill="#000088" style="fill:#000088;fill:color(display-p3 0.0000 0.0000 0.5333);fill-opacity:1;"/>
<path d="M7.37741 4.3884L7.71461 5.07735L7.92921 5.37338L7.78782 5.03395L7.37741 4.3884Z" fill="#000088" style="fill:#000088;fill:color(display-p3 0.0000 0.0000 0.5333);fill-opacity:1;"/>
<path d="M6.7578 5.60356C6.72384 5.60801 6.70004 5.64024 6.70464 5.67556C6.70924 5.71087 6.74049 5.73589 6.77445 5.73144C6.80841 5.72699 6.83221 5.69476 6.82761 5.65945C6.82302 5.62414 6.79176 5.59912 6.7578 5.60356Z" fill="#000088" style="fill:#000088;fill:color(display-p3 0.0000 0.0000 0.5333);fill-opacity:1;"/>
<path d="M7.67746 4.26021L7.83055 5.01546L7.96363 5.35866L7.91208 4.99319L7.67746 4.26021Z" fill="#000088" style="fill:#000088;fill:color(display-p3 0.0000 0.0000 0.5333);fill-opacity:1;"/>
<path d="M6.77395 5.26926C6.73971 5.26438 6.70845 5.28871 6.70414 5.3236C6.69982 5.35849 6.72408 5.39072 6.75832 5.3956C6.79256 5.40047 6.82381 5.37614 6.82813 5.34125C6.83244 5.30636 6.80819 5.27413 6.77395 5.26926Z" fill="#000088" style="fill:#000088;fill:color(display-p3 0.0000 0.0000 0.5333);fill-opacity:1;"/>
<path d="M7.99566 4.21682L7.96334 4.98631L8.00445 5.35306L8.03989 4.98674L7.99566 4.21682Z" fill="#000088" style="fill:#000088;fill:color(display-p3 0.0000 0.0000 0.5333);fill-opacity:1;"/>
<path d="M6.87385 4.95002C6.84196 4.93626 6.80556 4.95147 6.79256 4.98401C6.77955 5.01655 6.79487 5.05408 6.82677 5.06785C6.85866 5.08161 6.89506 5.0664 6.90806 5.03386C6.92107 5.00133 6.90575 4.96379 6.87385 4.95002Z" fill="#000088" style="fill:#000088;fill:color(display-p3 0.0000 0.0000 0.5333);fill-opacity:1;"/>
<path d="M8.32124 4.26074L8.08706 4.99238L8.03757 5.35805L8.1711 5.01578L8.32124 4.26074Z" fill="#000088" style="fill:#000088;fill:color(display-p3 0.0000 0.0000 0.5333);fill-opacity:1;"/>
<path d="M7.05038 4.66835C7.02295 4.64656 6.98389 4.65152 6.96314 4.67942C6.94239 4.70732 6.9478 4.74761 6.97523 4.76939C7.00266 4.79118 7.04172 4.78622 7.06248 4.75832C7.08323 4.73041 7.07781 4.69013 7.05038 4.66835Z" fill="#000088" style="fill:#000088;fill:color(display-p3 0.0000 0.0000 0.5333);fill-opacity:1;"/>
<path d="M8.62166 4.38903L8.21157 5.03294L8.07164 5.37262L8.28656 5.07773L8.62166 4.38903Z" fill="#000088" style="fill:#000088;fill:color(display-p3 0.0000 0.0000 0.5333);fill-opacity:1;"/>
<path d="M7.29167 4.44326C7.27059 4.41493 7.23153 4.40928 7.20442 4.43063C7.17732 4.45199 7.17244 4.49227 7.19352 4.5206C7.2146 4.54893 7.25366 4.55458 7.28076 4.53323C7.30787 4.51187 7.31275 4.47159 7.29167 4.44326Z" fill="#000088" style="fill:#000088;fill:color(display-p3 0.0000 0.0000 0.5333);fill-opacity:1;"/>
<path d="M8.87968 4.593L8.32167 5.10521L8.10105 5.39577L8.38277 5.16841L8.87968 4.593Z" fill="#000088" style="fill:#000088;fill:color(display-p3 0.0000 0.0000 0.5333);fill-opacity:1;"/>
<path d="M7.58175 4.28942C7.5688 4.25689 7.5324 4.24168 7.50045 4.25546C7.4685 4.26923 7.4531 4.30677 7.46605 4.33929C7.479 4.37182 7.5154 4.38703 7.54735 4.37325C7.5793 4.35948 7.5947 4.32195 7.58175 4.28942Z" fill="#000088" style="fill:#000088;fill:color(display-p3 0.0000 0.0000 0.5333);fill-opacity:1;"/>
<path d="M9.07809 4.85769L8.41 5.20599L8.12282 5.42721L8.45195 5.281L9.07809 4.85769Z" fill="#000088" style="fill:#000088;fill:color(display-p3 0.0000 0.0000 0.5333);fill-opacity:1;"/>
<path d="M7.89961 4.21883C7.89534 4.18389 7.86408 4.15949 7.8298 4.16432C7.79552 4.16914 7.77119 4.20138 7.77547 4.23631C7.77974 4.27124 7.81099 4.29565 7.84528 4.29082C7.87956 4.28599 7.90389 4.25376 7.89961 4.21883Z" fill="#000088" style="fill:#000088;fill:color(display-p3 0.0000 0.0000 0.5333);fill-opacity:1;"/>
<path d="M9.20251 5.16703L8.47013 5.32569L8.13722 5.46281L8.49159 5.40911L9.20251 5.16703Z" fill="#000088" style="fill:#000088;fill:color(display-p3 0.0000 0.0000 0.5333);fill-opacity:1;"/>
<path d="M8.22369 4.23553C8.22836 4.20011 8.20469 4.16788 8.17081 4.16354C8.13693 4.1592 8.10567 4.18439 8.101 4.21981C8.09632 4.25522 8.11999 4.28746 8.15387 4.2918C8.18775 4.29614 8.21901 4.27095 8.22369 4.23553Z" fill="#000088" style="fill:#000088;fill:color(display-p3 0.0000 0.0000 0.5333);fill-opacity:1;"/>
<path d="M9.24443 5.49371L8.49806 5.46467L8.14246 5.50642L8.49781 5.53997L9.24443 5.49371Z" fill="#000088" style="fill:#000088;fill:color(display-p3 0.0000 0.0000 0.5333);fill-opacity:1;"/>
<path d="M8.53364 4.33868C8.54688 4.30578 8.53195 4.26824 8.50029 4.25484C8.46863 4.24144 8.43224 4.25725 8.419 4.29016C8.40575 4.32306 8.42068 4.36059 8.45234 4.37399C8.484 4.38739 8.5204 4.37158 8.53364 4.33868Z" fill="#000088" style="fill:#000088;fill:color(display-p3 0.0000 0.0000 0.5333);fill-opacity:1;"/>
<path d="M9.20203 5.83135L8.49218 5.58985L8.13765 5.53882L8.46981 5.67652L9.20203 5.83135Z" fill="#000088" style="fill:#000088;fill:color(display-p3 0.0000 0.0000 0.5333);fill-opacity:1;"/>
<path d="M8.80687 4.52075C8.82787 4.49252 8.82286 4.45224 8.79568 4.43078C8.7685 4.40932 8.72944 4.4148 8.70844 4.44303C8.68743 4.47126 8.69245 4.51154 8.71963 4.533C8.74681 4.55446 8.78587 4.54898 8.80687 4.52075Z" fill="#000088" style="fill:#000088;fill:color(display-p3 0.0000 0.0000 0.5333);fill-opacity:1;"/>
<path d="M9.07778 6.14136L8.45285 5.71838L8.12354 5.57373L8.40987 5.79529L9.07778 6.14136Z" fill="#000088" style="fill:#000088;fill:color(display-p3 0.0000 0.0000 0.5333);fill-opacity:1;"/>
<path d="M9.02512 4.76942C9.05246 4.74774 9.05774 4.70746 9.0369 4.67945C9.01607 4.65145 8.97701 4.64633 8.94966 4.66801C8.92232 4.6897 8.91704 4.72998 8.93787 4.75798C8.95871 4.78598 8.99777 4.79111 9.02512 4.76942Z" fill="#000088" style="fill:#000088;fill:color(display-p3 0.0000 0.0000 0.5333);fill-opacity:1;"/>
<path d="M8.87993 6.40724L8.38257 5.83174L8.10092 5.60401L8.32185 5.89448L8.87993 6.40724Z" fill="#000088" style="fill:#000088;fill:color(display-p3 0.0000 0.0000 0.5333);fill-opacity:1;"/>
<path d="M9.17332 5.06805C9.20515 5.05438 9.22036 5.01684 9.20729 4.98421C9.19422 4.95157 9.15782 4.9362 9.12599 4.94986C9.09416 4.96353 9.07895 5.00107 9.09202 5.0337C9.10509 5.06634 9.14149 5.08171 9.17332 5.06805Z" fill="#000088" style="fill:#000088;fill:color(display-p3 0.0000 0.0000 0.5333);fill-opacity:1;"/>
<path d="M8.62201 6.61123L8.28617 5.92246L8.07136 5.62723L8.21181 5.96684L8.62201 6.61123Z" fill="#000088" style="fill:#000088;fill:color(display-p3 0.0000 0.0000 0.5333);fill-opacity:1;"/>
<path d="M9.24185 5.39588C9.276 5.39115 9.30012 5.35892 9.29571 5.32389C9.29131 5.28886 9.26005 5.26429 9.2259 5.26902C9.19175 5.27375 9.16763 5.30599 9.17204 5.34102C9.17644 5.37605 9.2077 5.40061 9.24185 5.39588Z" fill="#000088" style="fill:#000088;fill:color(display-p3 0.0000 0.0000 0.5333);fill-opacity:1;"/>
<path d="M8.32174 6.73943L8.17053 5.98433L8.03717 5.64179L8.0874 6.0074L8.32174 6.73943Z" fill="#000088" style="fill:#000088;fill:color(display-p3 0.0000 0.0000 0.5333);fill-opacity:1;"/>
</g>
<defs>
<clipPath id="clip0_190_605">
<rect width="16" height="11" fill="white" style="fill:white;fill-opacity:1;"/>
</clipPath>
</defs>
</svg>
