<svg width="16" height="11" viewBox="0 0 16 11" fill="none" xmlns="http://www.w3.org/2000/svg">
<g clip-path="url(#clip0_190_8390)">
<path d="M16 0H0V10.6667H16V0Z" fill="#CF142B" style="fill:#CF142B;fill:color(display-p3 0.8118 0.0784 0.1686);fill-opacity:1;"/>
<path d="M8 0H0V10.6667H8V0Z" fill="white" style="fill:white;fill-opacity:1;"/>
<path d="M0.39502 1.47244V2.28057H1.20311C1.20311 2.41522 1.3378 2.54992 1.47248 2.54992V3.35799H2.28051V2.54992C2.4152 2.54992 2.54988 2.41522 2.54988 2.28057H3.35797V1.47244H2.54988C2.54988 1.33779 2.41519 1.20309 2.28051 1.20309V0.39502H1.47248V1.20309C1.33779 1.20309 1.20311 1.33779 1.20311 1.47244H0.39502Z" fill="#E60D2E" style="fill:#E60D2E;fill:color(display-p3 0.9020 0.0510 0.1804);fill-opacity:1;"/>
<path d="M0.448975 1.5264V2.22679H1.25701C1.25701 2.36143 1.3917 2.49612 1.52638 2.49612V3.30419H2.22668V2.49612C2.36137 2.49612 2.49605 2.36143 2.49605 2.22679H3.30409V1.5264H2.49605C2.49605 1.39175 2.36136 1.25705 2.22668 1.25705V0.448975H1.52638V1.25705C1.39169 1.25705 1.25701 1.39174 1.25701 1.5264H0.448975Z" fill="#96877D" style="fill:#96877D;fill:color(display-p3 0.5882 0.5294 0.4902);fill-opacity:1;"/>
<path d="M0.47583 1.55323V2.19971H1.28387C1.28387 2.33436 1.41855 2.46909 1.55323 2.46909V3.27716H2.19967V2.46909C2.33436 2.46909 2.46904 2.33435 2.46904 2.19971H3.27707V1.55323H2.46904C2.46904 1.41859 2.33435 1.2839 2.19967 1.2839V0.47583H1.55323V1.2839C1.41855 1.2839 1.28387 1.4186 1.28387 1.55323H0.47583Z" fill="#CCCCCC" style="fill:#CCCCCC;fill:color(display-p3 0.8000 0.8000 0.8000);fill-opacity:1;"/>
<path d="M1.50286 1.27418C1.55019 1.32152 1.5374 1.41106 1.47429 1.47418C1.41117 1.5373 1.32163 1.55009 1.27431 1.50275C1.22697 1.45542 1.23976 1.36588 1.30288 1.30275C1.36599 1.23964 1.45553 1.22685 1.50286 1.27418Z" fill="#96877D" style="fill:#96877D;fill:color(display-p3 0.5882 0.5294 0.4902);fill-opacity:1;"/>
<path d="M1.26477 1.41704L1.28382 1.39798L1.36 1.43606L1.32191 1.35988L1.34095 1.34082L1.41714 1.4932L1.26477 1.41701L1.26477 1.41704Z" fill="#D0D0D0" style="fill:#D0D0D0;fill:color(display-p3 0.8157 0.8157 0.8157);fill-opacity:1;"/>
<path d="M1.37903 1.30274L1.39808 1.28369L1.51235 1.39797L1.49331 1.41702L1.37903 1.30274Z" fill="#D0D0D0" style="fill:#D0D0D0;fill:color(display-p3 0.8157 0.8157 0.8157);fill-opacity:1;"/>
<path d="M2.47875 1.50274C2.43141 1.55007 2.34187 1.53728 2.27875 1.47417C2.21563 1.41105 2.20284 1.32151 2.25018 1.27418C2.29751 1.22685 2.38705 1.23964 2.45018 1.30275C2.51329 1.36587 2.52608 1.45541 2.47875 1.50274Z" fill="#96877D" style="fill:#96877D;fill:color(display-p3 0.5882 0.5294 0.4902);fill-opacity:1;"/>
<path d="M2.33589 1.26465L2.35495 1.28369L2.31686 1.35988L2.39305 1.32178L2.41211 1.34083L2.25973 1.41702L2.33592 1.26465L2.33589 1.26465Z" fill="#D0D0D0" style="fill:#D0D0D0;fill:color(display-p3 0.8157 0.8157 0.8157);fill-opacity:1;"/>
<path d="M2.45019 1.37891L2.46924 1.39795L2.35496 1.51223L2.33591 1.49319L2.45019 1.37891Z" fill="#D0D0D0" style="fill:#D0D0D0;fill:color(display-p3 0.8157 0.8157 0.8157);fill-opacity:1;"/>
<path d="M2.25019 2.47875C2.20286 2.43141 2.21565 2.34187 2.27876 2.27875C2.34188 2.21563 2.43142 2.20284 2.47875 2.25018C2.52608 2.29751 2.51329 2.38705 2.45018 2.45018C2.38706 2.51329 2.29752 2.52608 2.25019 2.47875Z" fill="#96877D" style="fill:#96877D;fill:color(display-p3 0.5882 0.5294 0.4902);fill-opacity:1;"/>
<path d="M2.48828 2.33589L2.46924 2.35495L2.39305 2.31686L2.43115 2.39305L2.4121 2.41211L2.33591 2.25973L2.48828 2.33592L2.48828 2.33589Z" fill="#D0D0D0" style="fill:#D0D0D0;fill:color(display-p3 0.8157 0.8157 0.8157);fill-opacity:1;"/>
<path d="M2.37402 2.45019L2.35498 2.46924L2.2407 2.35496L2.25974 2.33591L2.37402 2.45019Z" fill="#D0D0D0" style="fill:#D0D0D0;fill:color(display-p3 0.8157 0.8157 0.8157);fill-opacity:1;"/>
<path d="M1.2743 2.25019C1.32164 2.20286 1.41118 2.21565 1.4743 2.27876C1.53742 2.34188 1.55021 2.43142 1.50288 2.47875C1.45554 2.52608 1.366 2.51329 1.30288 2.45018C1.23976 2.38706 1.22697 2.29752 1.2743 2.25019Z" fill="#96877D" style="fill:#96877D;fill:color(display-p3 0.5882 0.5294 0.4902);fill-opacity:1;"/>
<path d="M1.41716 2.48828L1.3981 2.46924L1.43619 2.39305L1.36 2.43115L1.34094 2.4121L1.49332 2.33591L1.41713 2.48828L1.41716 2.48828Z" fill="#D0D0D0" style="fill:#D0D0D0;fill:color(display-p3 0.8157 0.8157 0.8157);fill-opacity:1;"/>
<path d="M1.30286 2.37402L1.28381 2.35498L1.39809 2.2407L1.41714 2.25974L1.30286 2.37402Z" fill="#D0D0D0" style="fill:#D0D0D0;fill:color(display-p3 0.8157 0.8157 0.8157);fill-opacity:1;"/>
<path d="M1.87652 2.44224C2.18896 2.44224 2.44224 2.18896 2.44224 1.87652C2.44224 1.56407 2.18896 1.31079 1.87652 1.31079C1.56407 1.31079 1.31079 1.56407 1.31079 1.87652C1.31079 2.18896 1.56407 2.44224 1.87652 2.44224Z" stroke="#96877D" style="stroke:#96877D;stroke:color(display-p3 0.5882 0.5294 0.4902);stroke-opacity:1;" stroke-width="0.00913778"/>
<path d="M1.87646 2.3076C2.1145 2.3076 2.30748 2.11463 2.30748 1.87658C2.30748 1.63853 2.1145 1.44556 1.87646 1.44556C1.63841 1.44556 1.44543 1.63853 1.44543 1.87658C1.44543 2.11463 1.63841 2.3076 1.87646 2.3076Z" stroke="#96877D" style="stroke:#96877D;stroke:color(display-p3 0.5882 0.5294 0.4902);stroke-opacity:1;" stroke-width="0.00913778"/>
<path d="M1.66097 2.36124C1.67584 2.36124 1.6879 2.34918 1.6879 2.33431C1.6879 2.31943 1.67584 2.30737 1.66097 2.30737C1.64609 2.30737 1.63403 2.31943 1.63403 2.33431C1.63403 2.34918 1.64609 2.36124 1.66097 2.36124Z" fill="black" style="fill:black;fill-opacity:1;"/>
<path d="M2.092 2.36124C2.10687 2.36124 2.11893 2.34918 2.11893 2.33431C2.11893 2.31943 2.10687 2.30737 2.092 2.30737C2.07712 2.30737 2.06506 2.31943 2.06506 2.33431C2.06506 2.34918 2.07712 2.36124 2.092 2.36124Z" fill="black" style="fill:black;fill-opacity:1;"/>
<path d="M1.85863 2.33438V2.36246H1.82271C1.7868 2.36246 1.7868 2.39055 1.82271 2.39055H1.85863V2.41863C1.85875 2.44774 1.88998 2.45127 1.89226 2.42107L1.89454 2.39071H1.93046C1.96637 2.39071 1.96637 2.36263 1.93046 2.36263H1.89454V2.33454C1.89454 2.30646 1.85863 2.30646 1.85863 2.33454L1.85863 2.33438Z" fill="black" style="fill:black;fill-opacity:1;"/>
<path d="M1.35024 2.01591L1.38729 2.00708L1.38319 1.98991C1.38226 1.98597 1.3807 1.9833 1.37852 1.98188C1.37635 1.98047 1.37262 1.98007 1.36733 1.98069L1.36672 1.97812L1.39862 1.97052L1.39923 1.97309C1.39558 1.97401 1.39301 1.97512 1.39151 1.97644C1.39001 1.97775 1.38902 1.9793 1.38855 1.98111C1.38807 1.98291 1.38821 1.98539 1.38896 1.98854L1.39305 2.0057L1.42266 1.99865C1.42743 1.99751 1.43051 1.99646 1.43189 1.99549C1.43294 1.99475 1.43371 1.99354 1.43419 1.99186C1.43481 1.98956 1.43486 1.98729 1.43433 1.98507L1.43352 1.98166L1.43609 1.98105L1.44573 2.0215L1.44316 2.02211L1.44237 2.01877C1.44144 2.01488 1.43963 2.01233 1.43694 2.01111C1.43519 2.01035 1.43149 2.01064 1.42584 2.01199L1.36496 2.0265C1.36019 2.02764 1.35711 2.02869 1.35572 2.02966C1.35468 2.0304 1.35391 2.03159 1.35341 2.03322C1.35278 2.03548 1.35273 2.03774 1.35327 2.04001L1.35406 2.04335L1.35149 2.04396L1.33478 1.97384L1.35527 1.968L1.35585 1.97043C1.35174 1.97269 1.34884 1.97486 1.34716 1.97695C1.34548 1.97904 1.34445 1.98136 1.34408 1.98392C1.34371 1.98649 1.34412 1.99022 1.34529 1.99513L1.35024 2.01591ZM1.32638 1.84876C1.32709 1.83621 1.33247 1.8256 1.34252 1.81693C1.35258 1.80827 1.36474 1.80434 1.379 1.80514C1.3937 1.80597 1.40563 1.81129 1.41481 1.82111C1.42399 1.83093 1.42821 1.84243 1.42747 1.8556C1.42672 1.86892 1.42136 1.87984 1.41138 1.88836C1.40141 1.89689 1.38891 1.90073 1.37388 1.89988C1.35852 1.89902 1.34628 1.89308 1.33717 1.88207C1.32927 1.87251 1.32567 1.86141 1.32638 1.84876ZM1.33151 1.85041C1.33103 1.85907 1.33384 1.86619 1.33997 1.87178C1.34759 1.87875 1.35911 1.88266 1.37451 1.88353C1.3903 1.88442 1.40264 1.88173 1.41153 1.87546C1.41829 1.87064 1.42191 1.86397 1.42239 1.85546C1.4229 1.84638 1.41978 1.83868 1.41303 1.83236C1.40628 1.82604 1.39527 1.82245 1.38001 1.82159C1.36346 1.82065 1.35093 1.82322 1.34243 1.82927C1.33567 1.83414 1.33203 1.84119 1.33151 1.85041ZM1.47185 1.6735L1.46265 1.69767L1.40865 1.7122C1.40787 1.71451 1.40722 1.71637 1.40667 1.7178C1.40645 1.71838 1.4062 1.719 1.40593 1.71965C1.40565 1.72031 1.40535 1.72099 1.40504 1.72169L1.43135 1.7317C1.43704 1.73387 1.44082 1.73459 1.44267 1.73387C1.44528 1.73293 1.44722 1.73076 1.44851 1.72738L1.44986 1.72384L1.45233 1.72478L1.43756 1.76357L1.43509 1.76263L1.43639 1.75923C1.43784 1.7554 1.43764 1.75219 1.43577 1.74959C1.43475 1.74813 1.43166 1.74642 1.42649 1.74445L1.368 1.72219C1.3623 1.72002 1.35853 1.71929 1.35667 1.72001C1.35405 1.721 1.35209 1.72321 1.35079 1.72664L1.34949 1.73005L1.34702 1.72911L1.35958 1.69612C1.36324 1.68651 1.36664 1.67968 1.36978 1.67566C1.37291 1.67163 1.37697 1.66874 1.38194 1.66699C1.38692 1.66524 1.39201 1.66535 1.39722 1.66733C1.40278 1.66945 1.40692 1.67311 1.40963 1.67829C1.41235 1.68348 1.4131 1.6902 1.41189 1.69846L1.44499 1.68965C1.45258 1.68765 1.45794 1.68548 1.46107 1.68316C1.46419 1.68083 1.46697 1.6773 1.46938 1.67256L1.47185 1.6735ZM1.40083 1.72009C1.40116 1.71924 1.40145 1.71851 1.40171 1.71789C1.40197 1.71728 1.40217 1.71677 1.40232 1.71637C1.40561 1.70774 1.40622 1.70051 1.40415 1.69471C1.40208 1.6889 1.39815 1.68489 1.39237 1.68269C1.38671 1.68054 1.38144 1.68056 1.37656 1.68275C1.37167 1.68494 1.36812 1.68895 1.3659 1.69478C1.36491 1.69736 1.36401 1.70102 1.36318 1.70575L1.40083 1.72009ZM1.60699 1.39914L1.62571 1.42345L1.62361 1.42481C1.61735 1.41978 1.61149 1.41674 1.60603 1.41568C1.59817 1.41413 1.59043 1.41582 1.58284 1.42074C1.57249 1.42745 1.56726 1.43664 1.56717 1.44833C1.56714 1.45818 1.57021 1.46787 1.5764 1.47743C1.58142 1.48519 1.58751 1.49129 1.59465 1.49574C1.60179 1.5002 1.60875 1.50234 1.61554 1.50217C1.62232 1.50201 1.62828 1.50027 1.63339 1.49695C1.63639 1.49501 1.63904 1.49275 1.64135 1.49018C1.64366 1.48761 1.64563 1.48474 1.64727 1.48158L1.63205 1.45807C1.6294 1.45399 1.62737 1.45153 1.62593 1.45067C1.6245 1.44981 1.62291 1.44947 1.62119 1.44965C1.61946 1.44984 1.61696 1.45099 1.61368 1.45311L1.61221 1.45083L1.64369 1.43044L1.64516 1.43272L1.64366 1.43369C1.64055 1.43571 1.63908 1.43814 1.63927 1.44097C1.63943 1.44296 1.64092 1.44614 1.64374 1.4505L1.65986 1.47538C1.65686 1.48084 1.65351 1.4856 1.64978 1.48966C1.64605 1.49372 1.64145 1.49752 1.63597 1.50107C1.62026 1.51124 1.60507 1.51393 1.59039 1.50914C1.57938 1.50555 1.57067 1.49881 1.56428 1.48894C1.55964 1.48178 1.55692 1.47381 1.55611 1.46503C1.55514 1.45459 1.55686 1.44497 1.56125 1.43617C1.56496 1.42883 1.57087 1.42253 1.57898 1.41728C1.58194 1.41536 1.58478 1.41386 1.58751 1.41277C1.59024 1.41168 1.59436 1.41053 1.59986 1.40929C1.60264 1.40868 1.60441 1.40813 1.60517 1.40764C1.60593 1.40714 1.60635 1.40637 1.60644 1.40533C1.60653 1.40428 1.60597 1.40269 1.60477 1.40058L1.60699 1.39914ZM1.76474 1.41007L1.72849 1.41971L1.72606 1.43617C1.72547 1.44022 1.72541 1.44315 1.72588 1.44494C1.72626 1.44637 1.72727 1.44744 1.72892 1.44816C1.73057 1.44888 1.73369 1.44881 1.73828 1.44793L1.73896 1.45048L1.70948 1.45832L1.7088 1.45577C1.71253 1.45404 1.71482 1.45247 1.71568 1.45106C1.71744 1.44822 1.71885 1.44304 1.7199 1.43552L1.73235 1.3497L1.73476 1.34906L1.78806 1.41828C1.79235 1.42384 1.79581 1.42727 1.79845 1.42856C1.80109 1.42986 1.80434 1.43011 1.80823 1.42933L1.8089 1.43188L1.77197 1.44171L1.77129 1.43915C1.77497 1.43798 1.77732 1.43668 1.77835 1.43528C1.77938 1.43387 1.7797 1.4324 1.77929 1.43089C1.77875 1.42886 1.77698 1.42591 1.77398 1.42202L1.76474 1.41007ZM1.76144 1.40547L1.7355 1.37186L1.72927 1.41403L1.76144 1.40547ZM1.93248 1.40497L1.93482 1.40556L1.92552 1.43151L1.85056 1.42859L1.85066 1.42595L1.8543 1.42609C1.8584 1.42625 1.86138 1.42503 1.86324 1.42244C1.8643 1.42095 1.86494 1.41745 1.86515 1.41193L1.86758 1.34946C1.86781 1.34342 1.8673 1.33961 1.86602 1.33803C1.86425 1.33587 1.86153 1.33471 1.85786 1.33457L1.85422 1.33443L1.85433 1.33179L1.89816 1.33349L1.89806 1.33613C1.89292 1.33589 1.8893 1.33622 1.88719 1.33714C1.88508 1.33806 1.88361 1.33927 1.88279 1.34076C1.88197 1.34225 1.88145 1.34588 1.88122 1.35164L1.87886 1.41246C1.8787 1.41641 1.87898 1.41914 1.87968 1.42065C1.88022 1.42167 1.88107 1.42244 1.88224 1.42296C1.88341 1.42348 1.88711 1.42387 1.89335 1.42411L1.90042 1.42438C1.90784 1.42467 1.91307 1.42433 1.91611 1.42335C1.91916 1.42237 1.92197 1.42054 1.92455 1.41785C1.92713 1.41516 1.92977 1.41087 1.93248 1.40497ZM2.0615 1.43949L2.06358 1.44071L2.04746 1.46307L1.97623 1.43952L1.97706 1.43701L1.98052 1.43815C1.98441 1.43944 1.98761 1.43909 1.99012 1.43711C1.99155 1.43598 1.99313 1.43279 1.99487 1.42754L2.01449 1.36819C2.01639 1.36245 2.01695 1.35864 2.01616 1.35678C2.01506 1.3542 2.01276 1.35234 2.00928 1.35119L2.00582 1.35005L2.00665 1.34754L2.0483 1.36131L2.04747 1.36382C2.0426 1.36216 2.03903 1.36148 2.03675 1.36178C2.03446 1.36208 2.03272 1.36283 2.03152 1.36404C2.03032 1.36525 2.02881 1.36859 2.027 1.37406L2.00789 1.43185C2.00665 1.4356 2.00616 1.4383 2.00642 1.43994C2.00665 1.44107 2.00725 1.44205 2.00823 1.44288C2.00922 1.4437 2.01267 1.44509 2.01859 1.44705L2.02531 1.44927C2.03236 1.45161 2.03749 1.45272 2.04068 1.45263C2.04387 1.45253 2.04708 1.45154 2.05031 1.44968C2.05353 1.44781 2.05727 1.44441 2.0615 1.43949ZM2.16548 1.49456L2.13486 1.47289L2.12066 1.48157C2.11717 1.4837 2.11488 1.48553 2.11381 1.48705C2.11296 1.48825 2.11278 1.48972 2.11328 1.49144C2.11378 1.49317 2.11584 1.49551 2.11946 1.49848L2.11793 1.50064L2.09303 1.48302L2.09456 1.48086C2.09827 1.48261 2.10095 1.48337 2.10258 1.48312C2.10589 1.48266 2.11076 1.48043 2.11722 1.47642L2.1911 1.43103L2.19314 1.43247L2.17411 1.51773C2.17258 1.52459 2.17216 1.52944 2.17286 1.5323C2.17355 1.53515 2.17544 1.53782 2.17853 1.5403L2.177 1.54245L2.14581 1.52037L2.14733 1.51821C2.15059 1.52029 2.15309 1.52127 2.15483 1.52116C2.15657 1.52105 2.1579 1.52035 2.15881 1.51907C2.16002 1.51736 2.16115 1.51411 2.16221 1.50931L2.16548 1.49456ZM2.1669 1.48908L2.17611 1.44763L2.13973 1.46985L2.1669 1.48908ZM2.28179 1.51026L2.29745 1.53138L2.27434 1.62223L2.31923 1.58896C2.32401 1.58541 2.3266 1.58267 2.32699 1.58072C2.32755 1.57811 2.32669 1.57528 2.32442 1.57221L2.32242 1.56952L2.32455 1.56794L2.34463 1.59503L2.3425 1.59661L2.34046 1.59385C2.33802 1.59056 2.3353 1.58897 2.33229 1.58906C2.33044 1.58913 2.32733 1.59078 2.32297 1.59401L2.25737 1.64264L2.25583 1.64057L2.28048 1.5428L2.23255 1.57833C2.22777 1.58187 2.22517 1.5846 2.22475 1.58651C2.22422 1.58916 2.22507 1.59199 2.22731 1.59501L2.22935 1.59777L2.22723 1.59934L2.20715 1.57225L2.20927 1.57068L2.21127 1.57338C2.21374 1.5767 2.21648 1.57832 2.21949 1.57822C2.22134 1.57816 2.22445 1.57651 2.22881 1.57327L2.28293 1.53316C2.2839 1.52894 2.28437 1.52594 2.28435 1.52415C2.28433 1.52236 2.28384 1.52006 2.28289 1.51727C2.28241 1.5159 2.28134 1.51409 2.27967 1.51183L2.28179 1.51026ZM2.40394 1.73536L2.38288 1.74395L2.38198 1.74139C2.38558 1.73956 2.38803 1.73793 2.38935 1.73651C2.39146 1.73419 2.39272 1.73166 2.39314 1.72891C2.39356 1.72616 2.3931 1.7229 2.39176 1.71913L2.38721 1.70627L2.31743 1.73096C2.31182 1.73294 2.30853 1.73479 2.30757 1.73649C2.30629 1.73887 2.30627 1.74183 2.30753 1.74537L2.30865 1.74854L2.30616 1.74942L2.29246 1.71069L2.29495 1.70981L2.29609 1.71304C2.29746 1.7169 2.2996 1.71923 2.3025 1.72002C2.30429 1.7205 2.30774 1.71983 2.31286 1.71802L2.38264 1.69334L2.37876 1.68236C2.37725 1.67809 2.37586 1.67517 2.3746 1.6736C2.37292 1.67156 2.37057 1.67015 2.36756 1.66934C2.36455 1.66854 2.36092 1.66871 2.35668 1.66986L2.35577 1.6673L2.37757 1.6608L2.40394 1.73536ZM2.32726 1.9072L2.32592 1.88137L2.36945 1.84627C2.36923 1.84385 2.36908 1.84188 2.369 1.84036C2.36896 1.83974 2.36894 1.83907 2.36893 1.83836C2.36891 1.83764 2.36891 1.8369 2.36892 1.83614L2.34081 1.8376C2.33472 1.83792 2.33097 1.83878 2.32956 1.84019C2.32757 1.8421 2.32666 1.84487 2.32685 1.84848L2.32705 1.85227L2.32441 1.85241L2.32225 1.81095L2.32489 1.81081L2.32508 1.81445C2.32529 1.81854 2.32678 1.8214 2.32953 1.82302C2.33106 1.82394 2.33458 1.82426 2.3401 1.82397L2.4026 1.82072C2.40869 1.82041 2.41243 1.81954 2.41384 1.81814C2.41584 1.81617 2.41674 1.81336 2.41655 1.8097L2.41636 1.80606L2.419 1.80592L2.42083 1.84116C2.42137 1.85144 2.42101 1.85905 2.41977 1.864C2.41852 1.86896 2.41598 1.87324 2.41213 1.87685C2.40829 1.88046 2.40359 1.88241 2.39802 1.8827C2.39208 1.88301 2.38682 1.88134 2.38224 1.87769C2.37766 1.87404 2.37426 1.86819 2.37203 1.86015L2.34531 1.88157C2.33917 1.88647 2.33514 1.89062 2.33322 1.89401C2.3313 1.8974 2.33019 1.90175 2.32989 1.90706L2.32726 1.9072ZM2.37342 1.8359C2.37347 1.83681 2.37349 1.83759 2.3735 1.83826C2.37352 1.83893 2.37354 1.83947 2.37356 1.8399C2.37404 1.84913 2.3764 1.85598 2.38063 1.86046C2.38487 1.86494 2.39009 1.86702 2.39627 1.8667C2.40231 1.86638 2.40712 1.86424 2.41071 1.86026C2.41429 1.85628 2.41592 1.85117 2.4156 1.84494C2.41546 1.84218 2.41481 1.83847 2.41366 1.83381L2.37342 1.8359ZM2.39998 2.03519L2.3914 2.06788L2.38884 2.06721L2.38932 2.06541C2.38963 2.06421 2.38956 2.06232 2.3891 2.05974C2.38865 2.05716 2.38768 2.05467 2.38619 2.05226C2.38471 2.04985 2.38209 2.04668 2.37835 2.04274L2.34869 2.0108L2.32519 2.00464C2.31944 2.00313 2.31567 2.00283 2.31391 2.00375C2.31151 2.00499 2.30982 2.0075 2.30883 2.01128L2.30803 2.01432L2.30547 2.01365L2.31592 1.97384L2.31847 1.97451L2.3176 1.97783C2.31656 1.98179 2.31702 1.98492 2.31898 1.9872C2.32019 1.9886 2.32342 1.98999 2.32867 1.99137L2.35086 1.99719L2.39685 1.98178C2.40226 1.97995 2.40568 1.97864 2.40711 1.97786C2.40855 1.97708 2.41052 1.9752 2.41303 1.97221C2.41373 1.97141 2.41431 1.97014 2.41477 1.96839L2.41733 1.96906L2.40681 2.00914L2.40425 2.00847L2.4048 2.0064C2.40537 2.00423 2.40538 2.00211 2.40485 2.00002C2.40432 1.99793 2.40303 1.99663 2.40101 1.99609C2.39935 1.99566 2.39599 1.99628 2.39092 1.99795L2.35559 2.00958L2.37965 2.03555C2.38325 2.03945 2.38612 2.04167 2.38824 2.04223C2.38953 2.04257 2.39077 2.04254 2.39195 2.04214C2.39314 2.04174 2.39419 2.04099 2.39509 2.0399C2.39599 2.03881 2.39677 2.03702 2.39742 2.03453L2.39998 2.03519Z" fill="black" style="fill:black;fill-opacity:1;"/>
<path d="M2.18396 1.95871C2.19341 1.95632 2.20901 1.95826 2.20901 1.95826C2.20901 1.95826 2.21038 1.96475 2.20628 1.96691C2.21083 1.96953 2.22723 1.96874 2.22723 1.96874C2.22723 1.96874 2.22086 1.97363 2.21767 1.97557C2.22359 1.97614 2.23088 1.98377 2.23088 1.98377C2.23088 1.98377 2.21721 1.98604 2.21129 1.98286C2.21493 1.99014 2.21448 1.99652 2.21448 1.99652C2.21448 1.99652 2.19239 1.99106 2.18442 1.97648" fill="#96877D" style="fill:#96877D;fill:color(display-p3 0.5882 0.5294 0.4902);fill-opacity:1;"/>
<path d="M2.18396 1.95871C2.19341 1.95632 2.20901 1.95826 2.20901 1.95826C2.20901 1.95826 2.21038 1.96475 2.20628 1.96691C2.21083 1.96953 2.22723 1.96874 2.22723 1.96874C2.22723 1.96874 2.22086 1.97363 2.21767 1.97557C2.22359 1.97614 2.23088 1.98377 2.23088 1.98377C2.23088 1.98377 2.21721 1.98604 2.21129 1.98286C2.21493 1.99014 2.21448 1.99652 2.21448 1.99652C2.21448 1.99652 2.19239 1.99106 2.18442 1.97648" stroke="black" style="stroke:black;stroke-opacity:1;" stroke-width="0.00360889"/>
<path d="M2.14693 1.94645C2.14158 1.95965 2.10229 1.93506 2.10229 1.93506C2.10229 1.93506 2.1196 1.9625 2.14557 1.96558" fill="#96877D" style="fill:#96877D;fill:color(display-p3 0.5882 0.5294 0.4902);fill-opacity:1;"/>
<path d="M2.14693 1.94645C2.14158 1.95965 2.10229 1.93506 2.10229 1.93506C2.10229 1.93506 2.1196 1.9625 2.14557 1.96558" stroke="black" style="stroke:black;stroke-opacity:1;" stroke-width="0.00360889"/>
<path d="M1.65645 2.1983H2.11648L2.15201 2.17006L2.0928 2.13817L2.0017 2.1072L1.96526 2.08716L1.89785 2.0908L1.84137 2.12086L1.76394 2.12997L1.74572 2.15093L1.68833 2.15548L1.59814 2.15366L1.74845 2.17735L1.62456 2.17097L1.65645 2.1983Z" fill="#96877D" stroke="black" style="fill:#96877D;fill:color(display-p3 0.5882 0.5294 0.4902);fill-opacity:1;stroke:black;stroke-opacity:1;" stroke-width="0.00360889"/>
<path d="M1.90423 2.0662C1.84661 2.03523 1.82976 2.11152 1.80493 2.12997C1.83841 2.13566 1.86369 2.10423 1.89238 2.08897C1.91414 2.14823 1.94841 2.10901 1.94841 2.10901C1.94841 2.10901 1.98416 2.16572 2.03176 2.13999C2.04474 2.14978 2.05909 2.1409 2.05909 2.1409C2.05909 2.1409 2.0764 2.14409 2.08004 2.13634C2.08915 2.13953 2.09917 2.12814 2.09917 2.12814C2.09917 2.12814 2.11899 2.12837 2.12286 2.11812C2.15224 2.12336 2.19118 2.058 2.19118 2.058L2.20302 2.03523L2.22033 2.03158C2.22033 2.03158 2.22147 2.02019 2.21213 2.02065C2.21191 2.01382 2.20598 2.01017 2.19756 2.01154C2.19915 2.00744 2.193 2.00425 2.193 2.00425C2.17661 2.00835 2.17569 2.0498 2.17569 2.0498C2.17569 2.0498 2.147 2.07166 2.13652 2.07713C2.13607 2.05344 2.09644 2.02133 2.10464 2.00607C2.11284 1.99081 2.13857 2.02953 2.16112 2.02247C2.18366 2.01541 2.19474 1.98608 2.19574 1.96326C2.18936 1.94777 2.17387 1.92226 2.17387 1.92226L2.1593 1.92135L2.14654 1.89038C2.14654 1.89038 2.11967 1.90792 2.12013 1.92318C2.12058 1.93843 2.14837 1.95142 2.14837 1.95142C2.14837 1.95142 2.13234 1.96143 2.11739 1.95688C2.11603 1.97237 2.13561 1.96941 2.1429 1.96963C2.14654 1.98079 2.15748 1.98694 2.15748 1.98694C2.15748 1.98694 2.16431 2.00402 2.14654 2.00243C2.12878 2.00083 2.10782 1.95991 2.08278 1.97874C2.05613 1.99879 2.09462 2.03522 2.09462 2.03522C2.09462 2.03522 2.07116 2.04752 2.05727 2.07895C2.00056 2.03112 1.96731 2.05345 1.90423 2.0662Z" fill="#96877D" stroke="black" style="fill:#96877D;fill:color(display-p3 0.5882 0.5294 0.4902);fill-opacity:1;stroke:black;stroke-opacity:1;" stroke-width="0.00360889"/>
<path d="M1.82144 1.9852C1.84512 2.00752 1.8286 2.04462 1.83783 2.0517C1.84763 2.05922 1.86152 2.04806 1.86152 2.04806C1.88634 2.05466 1.93075 2.04077 1.93075 2.04077C1.9503 2.0517 1.94258 2.03557 1.95444 2.03622C1.96491 2.06309 1.99999 2.05808 1.99999 2.05808C1.99999 2.05808 1.96787 2.02528 1.94806 2.01618C1.9328 2.02529 1.88839 2.02665 1.88065 2.02529C1.87202 2.02376 1.87746 2.01321 1.87336 2.00707C1.88969 1.99117 1.87678 1.95173 1.8679 1.93692C1.8317 1.91281 1.78846 1.95413 1.82144 1.9852Z" fill="#96877D" stroke="black" style="fill:#96877D;fill:color(display-p3 0.5882 0.5294 0.4902);fill-opacity:1;stroke:black;stroke-opacity:1;" stroke-width="0.00360889"/>
<path d="M1.66388 1.91853C1.63409 1.92659 1.58239 1.88005 1.55824 1.89792C1.53408 1.9158 1.54535 1.95976 1.56146 1.98166C1.57719 2.00306 1.53843 2.01081 1.52796 2.02353C1.51812 2.03549 1.53118 2.0493 1.53118 2.0493L1.54213 2.05638L1.5402 2.07249L1.546 2.09181C1.546 2.09181 1.55131 2.09648 1.55308 2.09052C1.55808 2.09551 1.55361 2.10995 1.56597 2.11178C1.56154 2.10253 1.56919 2.07699 1.56919 2.07699C1.56919 2.07699 1.59077 2.07861 1.59624 2.06926C1.60172 2.05992 1.59109 2.03963 1.59109 2.03963H1.59753C1.59028 2.03464 1.58787 2.01967 1.58787 2.01967C1.58787 2.01967 1.61782 2.01017 1.6175 1.98746C1.61718 1.96475 1.56887 1.9406 1.58658 1.92884C1.60623 1.9158 1.64037 1.96266 1.66967 1.94108C1.69868 1.91973 1.67998 1.94044 1.67998 1.94044C1.67998 1.94044 1.69324 1.9106 1.66388 1.91853Z" fill="#96877D" stroke="black" style="fill:#96877D;fill:color(display-p3 0.5882 0.5294 0.4902);fill-opacity:1;stroke:black;stroke-opacity:1;" stroke-width="0.00360889"/>
<path d="M1.8177 1.59941C1.77784 1.58278 1.69643 1.58176 1.65099 1.55933C1.63106 1.56058 1.62218 1.57629 1.62138 1.58256C1.60055 1.58153 1.58643 1.61433 1.5895 1.62082C1.55158 1.60545 1.53393 1.66545 1.54623 1.67775C1.51389 1.67912 1.51788 1.72046 1.5148 1.73196C1.50444 1.75712 1.51711 1.76559 1.53757 1.75655C1.54065 1.76748 1.53635 1.77361 1.5271 1.77568C1.58323 1.83992 1.61496 1.73615 1.6642 1.73651C1.72568 1.71851 1.74983 1.68823 1.74983 1.68823L1.77397 1.69142L1.8177 1.59941Z" fill="#96877D" stroke="black" style="fill:#96877D;fill:color(display-p3 0.5882 0.5294 0.4902);fill-opacity:1;stroke:black;stroke-opacity:1;" stroke-width="0.00360889"/>
<path d="M1.86918 1.61214C1.90163 1.61214 1.92794 1.58583 1.92794 1.55338C1.92794 1.52093 1.90163 1.49463 1.86918 1.49463C1.83673 1.49463 1.81042 1.52093 1.81042 1.55338C1.81042 1.58583 1.83673 1.61214 1.86918 1.61214Z" fill="#96877D" stroke="black" style="fill:#96877D;fill:color(display-p3 0.5882 0.5294 0.4902);fill-opacity:1;stroke:black;stroke-opacity:1;" stroke-width="0.00360889"/>
<path d="M1.76578 2.01607C1.72934 2.00947 1.66899 1.97167 1.66284 1.92224C1.69678 1.78902 1.87182 1.85859 1.88691 1.75838C1.88307 1.69227 1.8949 1.62683 1.93157 1.57152C1.94865 1.54988 1.97074 1.54419 1.97074 1.54419C1.97074 1.54419 1.9747 1.5583 1.96892 1.56787C1.99784 1.56469 2.03747 1.58086 2.06457 1.58245C2.07254 1.59862 2.07186 1.60454 2.07004 1.61433C2.06821 1.62413 2.05728 1.62162 2.05728 1.62162C2.05021 1.62833 2.04172 1.63515 2.02267 1.63164C2.00832 1.64257 1.97803 1.64531 1.97803 1.64531C1.97803 1.64531 2.04134 1.71204 2.03086 1.73276C2.04407 1.73891 2.06366 1.76829 2.06366 1.76829C2.06366 1.76829 2.10693 1.74551 2.12105 1.72456C2.1461 1.72456 2.18709 1.75075 2.20759 1.75371C2.23264 1.77398 2.25769 1.7947 2.25769 1.7947C2.25769 1.7947 2.22786 1.81429 2.21488 1.78833C2.19916 1.7897 2.16523 1.75212 2.11832 1.76373C2.11695 1.80541 2.07095 1.83479 2.07095 1.83479C2.07095 1.83479 2.11389 1.82878 2.13745 1.84299C2.16181 1.86348 2.19757 1.89127 2.19757 1.89127L2.22945 1.94593C2.22945 1.94593 2.2003 1.95094 2.18937 1.91313C2.17844 1.94365 2.17799 1.89423 2.13472 1.87123C2.12151 1.87282 2.1149 1.87373 2.10374 1.86485C2.07254 1.87328 2.03565 1.8915 1.99169 1.88671C1.96049 1.89651 1.93772 1.92247 1.90606 1.93682C1.87441 1.95116 1.86507 1.9441 1.86507 1.9441L1.83956 1.94501C1.83588 1.96037 1.83797 1.98373 1.82408 1.98783C1.83296 1.9974 1.8177 2.03816 1.80221 2.04522C1.8095 2.07141 1.83085 2.07943 1.85323 2.09259C1.85323 2.09259 1.87304 2.08348 1.88602 2.09532C1.899 2.10717 1.91244 2.14087 1.91244 2.14087C1.91244 2.14087 1.88542 2.1427 1.87691 2.13905C1.8684 2.1354 1.86757 2.12652 1.85778 2.12903C1.79606 2.07414 1.76352 2.09598 1.75757 2.08348C1.75148 2.07068 1.77216 2.03725 1.76578 2.01607Z" fill="#96877D" stroke="black" style="fill:#96877D;fill:color(display-p3 0.5882 0.5294 0.4902);fill-opacity:1;stroke:black;stroke-opacity:1;" stroke-width="0.00360889"/>
<path d="M1.61749 1.77159C1.62071 1.76756 1.64326 1.7761 1.64326 1.7761L1.68448 1.80186L1.76822 1.85597L1.79785 1.89913L1.74439 1.88174L1.67031 1.81796L1.63037 1.7922C1.63037 1.7922 1.61427 1.77561 1.61749 1.77159Z" fill="#96877D" stroke="black" style="fill:#96877D;fill:color(display-p3 0.5882 0.5294 0.4902);fill-opacity:1;stroke:black;stroke-opacity:1;" stroke-width="0.00360889"/>
<path d="M2.11278 1.90864C2.08386 1.90135 2.01257 1.98789 2.01257 1.98789L2.06632 2.04619C2.06632 2.04619 2.06792 1.9469 2.11278 1.90864Z" fill="#96877D" stroke="black" style="fill:#96877D;fill:color(display-p3 0.5882 0.5294 0.4902);fill-opacity:1;stroke:black;stroke-opacity:1;" stroke-width="0.00360889"/>
<path d="M1.76029 1.66724C1.74452 1.68745 1.74311 1.72819 1.76362 1.74462C1.76556 1.76935 1.78658 1.81924 1.80311 1.82392C1.82116 1.82904 1.89329 1.84578 1.92153 1.84123C1.91613 1.887 1.95204 1.92374 1.9853 1.94781C1.98506 1.95192 1.985 1.95693 1.98884 1.96201C1.99256 1.96693 2.01004 1.96783 2.0108 1.96512C2.01855 1.97601 2.05609 1.98079 2.05881 1.97594C2.06146 1.97122 2.0036 1.93095 1.99076 1.91866C1.97986 1.89832 1.95921 1.853 1.95432 1.81663C1.92593 1.78285 1.87718 1.78353 1.87718 1.78353L1.87871 1.71734L1.88145 1.64264L1.85503 1.62897C1.85503 1.62897 1.86035 1.62655 1.86323 1.62351C1.86964 1.62627 1.8817 1.61338 1.88327 1.60973C1.88935 1.61189 1.89485 1.61186 1.89591 1.60861C1.89685 1.60574 1.89794 1.59298 1.90015 1.58638C1.92008 1.56883 1.89724 1.53163 1.86677 1.53101C1.83662 1.5304 1.82986 1.56698 1.83043 1.56976C1.83327 1.58124 1.83265 1.58702 1.83043 1.5898C1.82816 1.59264 1.81768 1.59891 1.81768 1.59891C1.81768 1.59891 1.80083 1.59094 1.78033 1.59891C1.75983 1.60688 1.73683 1.61759 1.73569 1.6308C1.72636 1.63216 1.7111 1.64423 1.70836 1.65448C1.70016 1.65289 1.68946 1.65972 1.67192 1.68819C1.6405 1.70208 1.63867 1.76926 1.63867 1.76926C1.63867 1.76926 1.63019 1.78162 1.62979 1.78817C1.62939 1.79471 1.63275 1.80069 1.63685 1.79955C1.63731 1.80388 1.643 1.80775 1.64551 1.80639C1.64642 1.81071 1.65267 1.81313 1.65644 1.81253C1.65678 1.81549 1.66891 1.81475 1.66988 1.81208C1.67094 1.80913 1.66868 1.79436 1.6701 1.79318C1.67141 1.79209 1.68149 1.79978 1.68422 1.79773C1.68696 1.79568 1.6837 1.78912 1.68217 1.78657C1.68081 1.78429 1.67215 1.78179 1.6701 1.77109C1.66805 1.76038 1.67557 1.74558 1.67557 1.74558C1.67557 1.74558 1.70973 1.7187 1.7136 1.6957C1.73934 1.69821 1.75295 1.67572 1.76029 1.66724Z" fill="#96877D" stroke="black" style="fill:#96877D;fill:color(display-p3 0.5882 0.5294 0.4902);fill-opacity:1;stroke:black;stroke-opacity:1;" stroke-width="0.00360889"/>
<path d="M1.70093 1.57103C1.70873 1.55196 1.73691 1.55372 1.73691 1.55372C1.73691 1.55372 1.74699 1.52719 1.78497 1.54302C1.79926 1.53197 1.83689 1.5478 1.83689 1.5478C1.83689 1.5478 1.85098 1.52903 1.86946 1.53118C1.90368 1.53516 1.90937 1.56653 1.90726 1.57194C1.88853 1.57667 1.85608 1.55672 1.83142 1.56238C1.81702 1.57052 1.79368 1.57912 1.78497 1.59085C1.76213 1.59324 1.73777 1.56984 1.70093 1.57103Z" fill="#96877D" stroke="black" style="fill:#96877D;fill:color(display-p3 0.5882 0.5294 0.4902);fill-opacity:1;stroke:black;stroke-opacity:1;" stroke-width="0.00360889"/>
<path d="M1.7722 1.60253C1.78074 1.59729 1.80169 1.58808 1.81592 1.59934C1.83084 1.6154 1.85373 1.63031 1.85373 1.63031L1.87969 1.64125L1.89153 1.64853L1.88379 1.76742C1.85976 1.74283 1.83724 1.73852 1.82002 1.70957C1.8108 1.69716 1.81786 1.66732 1.8018 1.64762C1.78575 1.62792 1.76867 1.6146 1.7722 1.60253Z" fill="#96877D" stroke="black" style="fill:#96877D;fill:color(display-p3 0.5882 0.5294 0.4902);fill-opacity:1;stroke:black;stroke-opacity:1;" stroke-width="0.00360889"/>
<path d="M1.83459 1.63696C1.83459 1.63696 1.8482 1.63439 1.85199 1.63761C1.85674 1.63922 1.86133 1.64059 1.86262 1.64469C1.86777 1.64622 1.87131 1.64888 1.87131 1.65274C1.87614 1.65403 1.87807 1.66273 1.87807 1.66273L1.87357 1.66949C1.87357 1.66949 1.86841 1.66466 1.86777 1.65951C1.86451 1.6579 1.8573 1.65621 1.85553 1.65146C1.84989 1.65089 1.84627 1.64799 1.84522 1.64308C1.83999 1.64429 1.83459 1.63696 1.83459 1.63696Z" fill="#96877D" stroke="black" style="fill:#96877D;fill:color(display-p3 0.5882 0.5294 0.4902);fill-opacity:1;stroke:black;stroke-opacity:1;" stroke-width="0.00360889"/>
<path d="M1.94979 1.55923C1.94205 1.55057 1.92838 1.55695 1.92838 1.55695L1.89194 1.61981L1.876 1.63302L1.87463 1.68221L1.88784 1.72821L1.88329 1.76374C1.88329 1.76374 1.90164 1.74652 1.90379 1.73687C1.90584 1.72764 1.89695 1.6977 1.89695 1.6977C1.89695 1.6977 1.88602 1.67902 1.89923 1.64441C1.91244 1.60979 1.9425 1.58109 1.94979 1.55923Z" fill="#96877D" stroke="black" style="fill:#96877D;fill:color(display-p3 0.5882 0.5294 0.4902);fill-opacity:1;stroke:black;stroke-opacity:1;" stroke-width="0.00360889"/>
<path d="M2.0398 1.61523C2.0398 1.61523 1.9829 1.69654 1.88976 1.72546C1.86402 1.73161 1.87336 1.66534 1.87336 1.66534L1.86698 1.66716C1.86698 1.66716 1.85263 1.73207 1.88702 1.73275C1.98063 1.7143 2.05086 1.61576 2.05086 1.61576L2.03966 1.61526L2.0398 1.61523Z" fill="#96877D" stroke="black" style="fill:#96877D;fill:color(display-p3 0.5882 0.5294 0.4902);fill-opacity:1;stroke:black;stroke-opacity:1;" stroke-width="0.00360889"/>
<path d="M2.07833 2.08282C2.07833 2.08282 2.06968 2.08919 2.05829 2.08282C2.05237 2.06915 2.03643 2.06824 2.03643 2.06824C2.03643 2.06824 2.02616 2.03874 2.01001 2.04729C2.0075 2.03203 1.98997 2.04 1.98997 2.04C1.98997 2.04 1.98951 2.01791 1.96902 2.02087C1.97585 1.99559 1.94078 1.99718 1.94078 1.99718C1.94078 1.99718 1.93964 1.96872 1.88794 1.97441C1.9993 1.92454 2.08744 2.05275 2.08744 2.05275" fill="#96877D" style="fill:#96877D;fill:color(display-p3 0.5882 0.5294 0.4902);fill-opacity:1;"/>
<path d="M2.07833 2.08282C2.07833 2.08282 2.06968 2.08919 2.05829 2.08282C2.05237 2.06915 2.03643 2.06824 2.03643 2.06824C2.03643 2.06824 2.02616 2.03874 2.01001 2.04729C2.0075 2.03203 1.98997 2.04 1.98997 2.04C1.98997 2.04 1.98951 2.01791 1.96902 2.02087C1.97585 1.99559 1.94078 1.99718 1.94078 1.99718C1.94078 1.99718 1.93964 1.96872 1.88794 1.97441C1.9993 1.92454 2.08744 2.05275 2.08744 2.05275" stroke="black" style="stroke:black;stroke-opacity:1;" stroke-width="0.00360889"/>
<path d="M2.13114 2.09351C2.13114 2.09351 2.15688 2.12243 2.17031 2.12266C2.18375 2.12288 2.18489 2.09442 2.18489 2.09442C2.18489 2.09442 2.18922 2.10671 2.19582 2.10353C2.19514 2.11218 2.20402 2.11446 2.20402 2.11446C2.20402 2.11446 2.18079 2.16843 2.11475 2.11719" fill="#96877D" style="fill:#96877D;fill:color(display-p3 0.5882 0.5294 0.4902);fill-opacity:1;"/>
<path d="M2.13114 2.09351C2.13114 2.09351 2.15688 2.12243 2.17031 2.12266C2.18375 2.12288 2.18489 2.09442 2.18489 2.09442C2.18489 2.09442 2.18922 2.10671 2.19582 2.10353C2.19514 2.11218 2.20402 2.11446 2.20402 2.11446C2.20402 2.11446 2.18079 2.16843 2.11475 2.11719" stroke="black" style="stroke:black;stroke-opacity:1;" stroke-width="0.00360889"/>
<path d="M1.92968 2.10452L1.92057 2.14187C1.92057 2.14187 1.90896 2.15235 1.91237 2.15462C1.91579 2.1569 1.93424 2.15098 1.93424 2.15098C1.93424 2.15098 1.96293 2.14756 1.97158 2.13914C1.97751 2.15257 1.99072 2.15371 1.99072 2.15371C1.99072 2.15371 1.99163 2.14802 1.9898 2.1446C1.99618 2.14574 2.00165 2.14369 2.00165 2.14369C2.00165 2.14369 2.00529 2.13322 1.99709 2.12912C1.998 2.12137 2.00188 2.11454 1.98798 2.11545C1.97773 2.12638 1.95246 2.13891 1.94608 2.13458C1.9397 2.13026 1.97113 2.11636 1.96248 2.09814" fill="#96877D" style="fill:#96877D;fill:color(display-p3 0.5882 0.5294 0.4902);fill-opacity:1;"/>
<path d="M1.92968 2.10452L1.92057 2.14187C1.92057 2.14187 1.90896 2.15235 1.91237 2.15462C1.91579 2.1569 1.93424 2.15098 1.93424 2.15098C1.93424 2.15098 1.96293 2.14756 1.97158 2.13914C1.97751 2.15257 1.99072 2.15371 1.99072 2.15371C1.99072 2.15371 1.99163 2.14802 1.9898 2.1446C1.99618 2.14574 2.00165 2.14369 2.00165 2.14369C2.00165 2.14369 2.00529 2.13322 1.99709 2.12912C1.998 2.12137 2.00188 2.11454 1.98798 2.11545C1.97773 2.12638 1.95246 2.13891 1.94608 2.13458C1.9397 2.13026 1.97113 2.11636 1.96248 2.09814" stroke="black" style="stroke:black;stroke-opacity:1;" stroke-width="0.00360889"/>
</g>
<rect x="0.05" y="0.05" width="15.9" height="10.5667" stroke="black" stroke-opacity="0.25" style="stroke:black;stroke-opacity:0.25;" stroke-width="0.1"/>
<defs>
<clipPath id="clip0_190_8390">
<rect width="16" height="10.6667" fill="white" style="fill:white;fill-opacity:1;"/>
</clipPath>
</defs>
</svg>
