<svg width="16" height="10" viewBox="0 0 16 10" fill="none" xmlns="http://www.w3.org/2000/svg">
<g clip-path="url(#clip0_190_906)">
<path d="M16 0H0V9.14286H16V0Z" fill="#DA0000" style="fill:#DA0000;fill:color(display-p3 0.8549 0.0000 0.0000);fill-opacity:1;"/>
<path d="M16 0H0V6.09524H16V0Z" fill="white" style="fill:white;fill-opacity:1;"/>
<path d="M16 0H0V3.04762H16V0Z" fill="#239F40" style="fill:#239F40;fill:color(display-p3 0.1373 0.6235 0.2510);fill-opacity:1;"/>
<path d="M0.213379 2.58536H1.13782M0.248934 2.90536V2.72758H0.533379V2.8698H0.817823V2.72758H0.640046M0.355601 2.8698H0.426712M1.13782 2.8698H0.960046V2.72758H1.24449M1.24449 2.5498V2.8698H1.52893V2.5498M1.38671 2.5498V2.8698" stroke="white" style="stroke:white;stroke-opacity:1;" stroke-width="0.0711111"/>
<path d="M0.213379 3.04761H0.853379M0.92449 3.04761H1.56449" stroke="white" style="stroke:white;stroke-opacity:1;" stroke-width="0.142222"/>
<path d="M0.213379 6.09521H0.853379M0.92449 6.09521H1.56449" stroke="white" style="stroke:white;stroke-opacity:1;" stroke-width="0.142222"/>
<path d="M0.213379 6.27298H1.13782M0.248934 6.59298V6.4152H0.533379V6.55743H0.817823V6.4152H0.640046M0.355601 6.55743H0.426712M1.13782 6.55743H0.960046V6.4152H1.24449M1.24449 6.23743V6.55743H1.52893V6.23743M1.38671 6.23743V6.55743" stroke="white" style="stroke:white;stroke-opacity:1;" stroke-width="0.0711111"/>
<path d="M1.63562 2.58536H2.56006M1.67118 2.90536V2.72758H1.95562V2.8698H2.24006V2.72758H2.06229M1.77784 2.8698H1.84895M2.56006 2.8698H2.38229V2.72758H2.66673M2.66673 2.5498V2.8698H2.95118V2.5498M2.80895 2.5498V2.8698" stroke="white" style="stroke:white;stroke-opacity:1;" stroke-width="0.0711111"/>
<path d="M1.63562 3.04761H2.27562M2.34673 3.04761H2.98673" stroke="white" style="stroke:white;stroke-opacity:1;" stroke-width="0.142222"/>
<path d="M1.63562 6.09521H2.27562M2.34673 6.09521H2.98673" stroke="white" style="stroke:white;stroke-opacity:1;" stroke-width="0.142222"/>
<path d="M1.63562 6.27298H2.56006M1.67118 6.59298V6.4152H1.95562V6.55743H2.24006V6.4152H2.06229M1.77784 6.55743H1.84895M2.56006 6.55743H2.38229V6.4152H2.66673M2.66673 6.23743V6.55743H2.95118V6.23743M2.80895 6.23743V6.55743" stroke="white" style="stroke:white;stroke-opacity:1;" stroke-width="0.0711111"/>
<path d="M3.05786 2.58536H3.98231M3.09342 2.90536V2.72758H3.37786V2.8698H3.66231V2.72758H3.48453M3.20008 2.8698H3.27119M3.98231 2.8698H3.80453V2.72758H4.08897M4.08897 2.5498V2.8698H4.37342V2.5498M4.23119 2.5498V2.8698" stroke="white" style="stroke:white;stroke-opacity:1;" stroke-width="0.0711111"/>
<path d="M3.05786 3.04761H3.69786M3.76897 3.04761H4.40897" stroke="white" style="stroke:white;stroke-opacity:1;" stroke-width="0.142222"/>
<path d="M3.05786 6.09521H3.69786M3.76897 6.09521H4.40897" stroke="white" style="stroke:white;stroke-opacity:1;" stroke-width="0.142222"/>
<path d="M3.05786 6.27298H3.98231M3.09342 6.59298V6.4152H3.37786V6.55743H3.66231V6.4152H3.48453M3.20008 6.55743H3.27119M3.98231 6.55743H3.80453V6.4152H4.08897M4.08897 6.23743V6.55743H4.37342V6.23743M4.23119 6.23743V6.55743" stroke="white" style="stroke:white;stroke-opacity:1;" stroke-width="0.0711111"/>
<path d="M4.4801 2.58536H5.40455M4.51566 2.90536V2.72758H4.8001V2.8698H5.08455V2.72758H4.90677M4.62232 2.8698H4.69344M5.40455 2.8698H5.22677V2.72758H5.51121M5.51121 2.5498V2.8698H5.79566V2.5498M5.65344 2.5498V2.8698" stroke="white" style="stroke:white;stroke-opacity:1;" stroke-width="0.0711111"/>
<path d="M4.4801 3.04761H5.1201M5.19121 3.04761H5.83121" stroke="white" style="stroke:white;stroke-opacity:1;" stroke-width="0.142222"/>
<path d="M4.4801 6.09521H5.1201M5.19121 6.09521H5.83121" stroke="white" style="stroke:white;stroke-opacity:1;" stroke-width="0.142222"/>
<path d="M4.4801 6.27298H5.40455M4.51566 6.59298V6.4152H4.8001V6.55743H5.08455V6.4152H4.90677M4.62232 6.55743H4.69344M5.40455 6.55743H5.22677V6.4152H5.51121M5.51121 6.23743V6.55743H5.79566V6.23743M5.65344 6.23743V6.55743" stroke="white" style="stroke:white;stroke-opacity:1;" stroke-width="0.0711111"/>
<path d="M5.90222 2.58536H6.82667M5.93778 2.90536V2.72758H6.22222V2.8698H6.50667V2.72758H6.32889M6.04444 2.8698H6.11556M6.82667 2.8698H6.64889V2.72758H6.93333M6.93333 2.5498V2.8698H7.21778V2.5498M7.07556 2.5498V2.8698" stroke="white" style="stroke:white;stroke-opacity:1;" stroke-width="0.0711111"/>
<path d="M5.90222 3.04761H6.54222M6.61333 3.04761H7.25333" stroke="white" style="stroke:white;stroke-opacity:1;" stroke-width="0.142222"/>
<path d="M5.90222 6.09521H6.54222M6.61333 6.09521H7.25333" stroke="white" style="stroke:white;stroke-opacity:1;" stroke-width="0.142222"/>
<path d="M5.90222 6.27298H6.82667M5.93778 6.59298V6.4152H6.22222V6.55743H6.50667V6.4152H6.32889M6.04444 6.55743H6.11556M6.82667 6.55743H6.64889V6.4152H6.93333M6.93333 6.23743V6.55743H7.21778V6.23743M7.07556 6.23743V6.55743" stroke="white" style="stroke:white;stroke-opacity:1;" stroke-width="0.0711111"/>
<path d="M7.32446 2.58536H8.24891M7.36002 2.90536V2.72758H7.64446V2.8698H7.92891V2.72758H7.75113M7.46669 2.8698H7.5378M8.24891 2.8698H8.07113V2.72758H8.35557M8.35557 2.5498V2.8698H8.64002V2.5498M8.4978 2.5498V2.8698" stroke="white" style="stroke:white;stroke-opacity:1;" stroke-width="0.0711111"/>
<path d="M7.32446 3.04761H7.96446M8.03557 3.04761H8.67557" stroke="white" style="stroke:white;stroke-opacity:1;" stroke-width="0.142222"/>
<path d="M7.32446 6.09521H7.96446M8.03557 6.09521H8.67557" stroke="white" style="stroke:white;stroke-opacity:1;" stroke-width="0.142222"/>
<path d="M7.32446 6.27298H8.24891M7.36002 6.59298V6.4152H7.64446V6.55743H7.92891V6.4152H7.75113M7.46669 6.55743H7.5378M8.24891 6.55743H8.07113V6.4152H8.35557M8.35557 6.23743V6.55743H8.64002V6.23743M8.4978 6.23743V6.55743" stroke="white" style="stroke:white;stroke-opacity:1;" stroke-width="0.0711111"/>
<path d="M8.7467 2.58536H9.67115M8.78226 2.90536V2.72758H9.0667V2.8698H9.35115V2.72758H9.17337M8.88893 2.8698H8.96004M9.67115 2.8698H9.49337V2.72758H9.77782M9.77782 2.5498V2.8698H10.0623V2.5498M9.92004 2.5498V2.8698" stroke="white" style="stroke:white;stroke-opacity:1;" stroke-width="0.0711111"/>
<path d="M8.7467 3.04761H9.3867M9.45782 3.04761H10.0978" stroke="white" style="stroke:white;stroke-opacity:1;" stroke-width="0.142222"/>
<path d="M8.7467 6.09521H9.3867M9.45782 6.09521H10.0978" stroke="white" style="stroke:white;stroke-opacity:1;" stroke-width="0.142222"/>
<path d="M8.7467 6.27298H9.67115M8.78226 6.59298V6.4152H9.0667V6.55743H9.35115V6.4152H9.17337M8.88893 6.55743H8.96004M9.67115 6.55743H9.49337V6.4152H9.77782M9.77782 6.23743V6.55743H10.0623V6.23743M9.92004 6.23743V6.55743" stroke="white" style="stroke:white;stroke-opacity:1;" stroke-width="0.0711111"/>
<path d="M10.1689 2.58536H11.0934M10.2045 2.90536V2.72758H10.4889V2.8698H10.7734V2.72758H10.5956M10.3112 2.8698H10.3823M11.0934 2.8698H10.9156V2.72758H11.2001M11.2001 2.5498V2.8698H11.4845V2.5498M11.3423 2.5498V2.8698" stroke="white" style="stroke:white;stroke-opacity:1;" stroke-width="0.0711111"/>
<path d="M10.1689 3.04761H10.8089M10.8801 3.04761H11.5201" stroke="white" style="stroke:white;stroke-opacity:1;" stroke-width="0.142222"/>
<path d="M10.1689 6.09521H10.8089M10.8801 6.09521H11.5201" stroke="white" style="stroke:white;stroke-opacity:1;" stroke-width="0.142222"/>
<path d="M10.1689 6.27298H11.0934M10.2045 6.59298V6.4152H10.4889V6.55743H10.7734V6.4152H10.5956M10.3112 6.55743H10.3823M11.0934 6.55743H10.9156V6.4152H11.2001M11.2001 6.23743V6.55743H11.4845V6.23743M11.3423 6.23743V6.55743" stroke="white" style="stroke:white;stroke-opacity:1;" stroke-width="0.0711111"/>
<path d="M11.5912 2.58536H12.5156M11.6267 2.90536V2.72758H11.9112V2.8698H12.1956V2.72758H12.0179M11.7334 2.8698H11.8045M12.5156 2.8698H12.3379V2.72758H12.6223M12.6223 2.5498V2.8698H12.9067V2.5498M12.7645 2.5498V2.8698" stroke="white" style="stroke:white;stroke-opacity:1;" stroke-width="0.0711111"/>
<path d="M11.5912 3.04761H12.2312M12.3023 3.04761H12.9423" stroke="white" style="stroke:white;stroke-opacity:1;" stroke-width="0.142222"/>
<path d="M11.5912 6.09521H12.2312M12.3023 6.09521H12.9423" stroke="white" style="stroke:white;stroke-opacity:1;" stroke-width="0.142222"/>
<path d="M11.5912 6.27298H12.5156M11.6267 6.59298V6.4152H11.9112V6.55743H12.1956V6.4152H12.0179M11.7334 6.55743H11.8045M12.5156 6.55743H12.3379V6.4152H12.6223M12.6223 6.23743V6.55743H12.9067V6.23743M12.7645 6.23743V6.55743" stroke="white" style="stroke:white;stroke-opacity:1;" stroke-width="0.0711111"/>
<path d="M13.0134 2.58536H13.9379M13.049 2.90536V2.72758H13.3334V2.8698H13.6179V2.72758H13.4401M13.1556 2.8698H13.2268M13.9379 2.8698H13.7601V2.72758H14.0445M14.0445 2.5498V2.8698H14.329V2.5498M14.1868 2.5498V2.8698" stroke="white" style="stroke:white;stroke-opacity:1;" stroke-width="0.0711111"/>
<path d="M13.0134 3.04761H13.6534M13.7245 3.04761H14.3645" stroke="white" style="stroke:white;stroke-opacity:1;" stroke-width="0.142222"/>
<path d="M13.0134 6.09521H13.6534M13.7245 6.09521H14.3645" stroke="white" style="stroke:white;stroke-opacity:1;" stroke-width="0.142222"/>
<path d="M13.0134 6.27298H13.9379M13.049 6.59298V6.4152H13.3334V6.55743H13.6179V6.4152H13.4401M13.1556 6.55743H13.2268M13.9379 6.55743H13.7601V6.4152H14.0445M14.0445 6.23743V6.55743H14.329V6.23743M14.1868 6.23743V6.55743" stroke="white" style="stroke:white;stroke-opacity:1;" stroke-width="0.0711111"/>
<path d="M14.4357 2.58536H15.3601M14.4712 2.90536V2.72758H14.7557V2.8698H15.0401V2.72758H14.8623M14.5779 2.8698H14.649M15.3601 2.8698H15.1823V2.72758H15.4668M15.4668 2.5498V2.8698H15.7512V2.5498M15.609 2.5498V2.8698" stroke="white" style="stroke:white;stroke-opacity:1;" stroke-width="0.0711111"/>
<path d="M14.4357 3.04761H15.0757M15.1468 3.04761H15.7868" stroke="white" style="stroke:white;stroke-opacity:1;" stroke-width="0.142222"/>
<path d="M14.4357 6.09521H15.0757M15.1468 6.09521H15.7868" stroke="white" style="stroke:white;stroke-opacity:1;" stroke-width="0.142222"/>
<path d="M14.4357 6.27298H15.3601M14.4712 6.59298V6.4152H14.7557V6.55743H15.0401V6.4152H14.8623M14.5779 6.55743H14.649M15.3601 6.55743H15.1823V6.4152H15.4668M15.4668 6.23743V6.55743H15.7512V6.23743M15.609 6.23743V6.55743" stroke="white" style="stroke:white;stroke-opacity:1;" stroke-width="0.0711111"/>
<path d="M7.37354 5.52729C7.60257 5.60171 7.85031 5.59453 8.07465 5.50696C8.29899 5.41939 8.48608 5.25684 8.60414 5.04694C8.7222 4.83704 8.76393 4.59273 8.72224 4.35554C8.68055 4.11836 8.55802 3.90292 8.37547 3.74585C8.49425 3.92162 8.56177 4.12698 8.57046 4.33894C8.57915 4.55091 8.52868 4.7611 8.42468 4.94601C8.32069 5.13091 8.16728 5.28322 7.98163 5.38588C7.79599 5.48854 7.58543 5.53751 7.37354 5.52729Z" fill="#DA0000" style="fill:#DA0000;fill:color(display-p3 0.8549 0.0000 0.0000);fill-opacity:1;"/>
<path d="M8.70673 5.3273C8.85726 5.2403 8.97838 5.11033 9.05459 4.95406C9.13079 4.79778 9.1586 4.62232 9.13445 4.45014C9.1103 4.27796 9.0353 4.11691 8.91905 3.98763C8.80279 3.85835 8.65059 3.76672 8.48193 3.72449C8.60211 3.81484 8.70328 3.92801 8.77964 4.05753C8.856 4.18704 8.90606 4.33035 8.92694 4.47924C8.94782 4.62814 8.93912 4.77969 8.90133 4.92521C8.86354 5.07074 8.79741 5.20737 8.70673 5.3273Z" fill="#DA0000" style="fill:#DA0000;fill:color(display-p3 0.8549 0.0000 0.0000);fill-opacity:1;"/>
<path d="M8.00001 5.71423L7.94287 4.57138L8.00001 3.67163C8.03473 3.72013 8.08113 3.75908 8.13491 3.78487V4.45663L8.08894 5.59184L8.00001 5.71423Z" fill="#DA0000" style="fill:#DA0000;fill:color(display-p3 0.8549 0.0000 0.0000);fill-opacity:1;"/>
<path d="M7.97717 3.59998L8.00003 3.62144C8.02328 3.6545 8.05786 3.67787 8.09721 3.68711C8.13655 3.69636 8.17792 3.69083 8.21346 3.67159C8.249 3.65234 8.27623 3.62072 8.28999 3.58272C8.30376 3.54472 8.30309 3.50299 8.28812 3.46545C8.28221 3.49672 8.26689 3.52542 8.2442 3.54772C8.22151 3.57002 8.19254 3.58485 8.16118 3.59021C8.12983 3.59556 8.09758 3.5912 8.06877 3.5777C8.03996 3.5642 8.01598 3.54221 8.00003 3.51468" fill="#DA0000" style="fill:#DA0000;fill:color(display-p3 0.8549 0.0000 0.0000);fill-opacity:1;"/>
<path d="M8.62646 5.52729C8.39743 5.60171 8.14969 5.59453 7.92535 5.50696C7.70101 5.41939 7.51392 5.25684 7.39586 5.04694C7.2778 4.83704 7.23607 4.59273 7.27776 4.35554C7.31945 4.11836 7.44198 3.90292 7.62453 3.74585C7.50575 3.92162 7.43823 4.12698 7.42954 4.33894C7.42085 4.55091 7.47132 4.7611 7.57532 4.94601C7.67931 5.13091 7.83272 5.28322 8.01837 5.38588C8.20401 5.48854 8.41457 5.53751 8.62646 5.52729Z" fill="#DA0000" style="fill:#DA0000;fill:color(display-p3 0.8549 0.0000 0.0000);fill-opacity:1;"/>
<path d="M7.29339 5.3273C7.14286 5.2403 7.02174 5.11033 6.94554 4.95406C6.86933 4.79778 6.84152 4.62232 6.86567 4.45014C6.88982 4.27796 6.96482 4.11691 7.08108 3.98763C7.19733 3.85835 7.34953 3.76672 7.51819 3.72449C7.39801 3.81484 7.29685 3.92801 7.22048 4.05753C7.14412 4.18704 7.09407 4.33035 7.07318 4.47924C7.0523 4.62814 7.061 4.77969 7.09879 4.92521C7.13658 5.07074 7.20271 5.20737 7.29339 5.3273Z" fill="#DA0000" style="fill:#DA0000;fill:color(display-p3 0.8549 0.0000 0.0000);fill-opacity:1;"/>
<path d="M7.99999 5.71423L8.05713 4.57138L7.99999 3.67163C7.96527 3.72013 7.91887 3.75908 7.86509 3.78487V4.45663L7.91106 5.59184L7.99999 5.71423Z" fill="#DA0000" style="fill:#DA0000;fill:color(display-p3 0.8549 0.0000 0.0000);fill-opacity:1;"/>
<path d="M8.02283 3.59998L7.99997 3.62144C7.97672 3.6545 7.94214 3.67787 7.90279 3.68711C7.86345 3.69636 7.82208 3.69083 7.78654 3.67159C7.751 3.65234 7.72377 3.62072 7.71001 3.58272C7.69624 3.54472 7.69691 3.50299 7.71188 3.46545C7.71779 3.49672 7.73311 3.52542 7.7558 3.54772C7.77849 3.57002 7.80746 3.58485 7.83882 3.59021C7.87017 3.59556 7.90242 3.5912 7.93123 3.5777C7.96004 3.5642 7.98402 3.54221 7.99997 3.51468" fill="#DA0000" style="fill:#DA0000;fill:color(display-p3 0.8549 0.0000 0.0000);fill-opacity:1;"/>
</g>
<defs>
<clipPath id="clip0_190_906">
<rect width="16" height="9.14286" fill="white" style="fill:white;fill-opacity:1;"/>
</clipPath>
</defs>
</svg>
