<svg width="16" height="8" viewBox="0 0 16 8" fill="none" xmlns="http://www.w3.org/2000/svg">
<g clip-path="url(#clip0_190_1634)">
<path d="M16 0H0V8H16V0Z" fill="#DA121A" style="fill:#DA121A;fill:color(display-p3 0.8549 0.0706 0.1020);fill-opacity:1;"/>
<path d="M16 0H0V5.33333H16V0Z" fill="#FCDD09" style="fill:#FCDD09;fill:color(display-p3 0.9882 0.8667 0.0353);fill-opacity:1;"/>
<path d="M16 0H0V2.66667H16V0Z" fill="#078930" style="fill:#078930;fill:color(display-p3 0.0275 0.5373 0.1882);fill-opacity:1;"/>
<path d="M7.99992 6.66671C9.47268 6.66671 10.6666 5.4728 10.6666 4.00004C10.6666 2.52728 9.47268 1.33337 7.99992 1.33337C6.52716 1.33337 5.33325 2.52728 5.33325 4.00004C5.33325 5.4728 6.52716 6.66671 7.99992 6.66671Z" fill="#0F47AF" style="fill:#0F47AF;fill:color(display-p3 0.0588 0.2784 0.6863);fill-opacity:1;"/>
<path d="M7.99992 1.8667L7.90645 2.15435L8.29195 3.3408H7.77798L7.72021 3.51857H9.36827L9.61296 3.3408H8.47888L7.99992 1.8667Z" fill="#FCDD09" style="fill:#FCDD09;fill:color(display-p3 0.9882 0.8667 0.0353);fill-opacity:1;"/>
<path d="M8.57458 3.20898L9.2538 2.27412Z" fill="black" style="fill:black;fill-opacity:1;"/>
<path d="M8.57458 3.20898L9.2538 2.27412" stroke="#FCDD09" style="stroke:#FCDD09;stroke:color(display-p3 0.9882 0.8667 0.0353);stroke-opacity:1;" stroke-width="0.0888889"/>
<path d="M10.0288 3.34084L9.72636 3.34084L8.71711 4.07411L8.55828 3.58529L8.37136 3.58529L8.88063 5.15268L9.12532 5.33046L8.77487 4.25188L10.0288 3.34084Z" fill="#FCDD09" style="fill:#FCDD09;fill:color(display-p3 0.9882 0.8667 0.0353);fill-opacity:1;"/>
<path d="M8.92981 4.30225L10.0288 4.65933Z" fill="black" style="fill:black;fill-opacity:1;"/>
<path d="M8.92981 4.30225L10.0288 4.65933" stroke="#FCDD09" style="stroke:#FCDD09;stroke:color(display-p3 0.9882 0.8667 0.0353);stroke-opacity:1;" stroke-width="0.0888889"/>
<path d="M9.25382 5.72593L9.16036 5.43828L8.1511 4.70501L8.56692 4.40291L8.50915 4.22513L7.17585 5.19383L7.08238 5.48148L7.99988 4.81489L9.25382 5.72593Z" fill="#FCDD09" style="fill:#FCDD09;fill:color(display-p3 0.9882 0.8667 0.0353);fill-opacity:1;"/>
<path d="M7.99988 4.97778V6.13334Z" fill="black" style="fill:black;fill-opacity:1;"/>
<path d="M7.99988 4.97778V6.13334" stroke="#FCDD09" style="stroke:#FCDD09;stroke:color(display-p3 0.9882 0.8667 0.0353);stroke-opacity:1;" stroke-width="0.0888889"/>
<path d="M6.74601 5.72598L6.9907 5.5482L7.3762 4.36175L7.79201 4.66386L7.94324 4.55399L6.60993 3.58528L6.30748 3.58528L7.22497 4.25188L6.74601 5.72598Z" fill="#FCDD09" style="fill:#FCDD09;fill:color(display-p3 0.9882 0.8667 0.0353);fill-opacity:1;"/>
<path d="M7.07007 4.30225L5.97107 4.65933Z" fill="black" style="fill:black;fill-opacity:1;"/>
<path d="M7.07007 4.30225L5.97107 4.65933" stroke="#FCDD09" style="stroke:#FCDD09;stroke:color(display-p3 0.9882 0.8667 0.0353);stroke-opacity:1;" stroke-width="0.0888889"/>
<path d="M5.97095 3.3408L6.21564 3.51858L7.46315 3.51858L7.30432 4.0074L7.45555 4.11727L7.96483 2.54987L7.87136 2.26222L7.52091 3.3408L5.97095 3.3408Z" fill="#FCDD09" style="fill:#FCDD09;fill:color(display-p3 0.9882 0.8667 0.0353);fill-opacity:1;"/>
<path d="M7.42517 3.20898L6.74595 2.27412Z" fill="black" style="fill:black;fill-opacity:1;"/>
<path d="M7.42517 3.20898L6.74595 2.27412" stroke="#FCDD09" style="stroke:#FCDD09;stroke:color(display-p3 0.9882 0.8667 0.0353);stroke-opacity:1;" stroke-width="0.0888889"/>
</g>
<defs>
<clipPath id="clip0_190_1634">
<rect width="16" height="8" fill="white" style="fill:white;fill-opacity:1;"/>
</clipPath>
</defs>
</svg>
