<svg width="16" height="10" viewBox="0 0 16 10" fill="none" xmlns="http://www.w3.org/2000/svg">
<g clip-path="url(#clip0_190_3245)">
<path d="M18.6667 -2.5H-2.66663V12.5H18.6667V-2.5Z" fill="#DA251D" style="fill:#DA251D;fill:color(display-p3 0.8549 0.1451 0.1137);fill-opacity:1;"/>
<path d="M8 2L7.01115 4.85317L9.04007 5.4712" fill="#FFFF00" style="fill:#FFFF00;fill:color(display-p3 1.0000 1.0000 0.0000);fill-opacity:1;"/>
<path d="M8 2L8.98885 4.85317L6.95993 5.4712" fill="#FFFF00" style="fill:#FFFF00;fill:color(display-p3 1.0000 1.0000 0.0000);fill-opacity:1;"/>
<path d="M10.9965 4.13416L7.84333 4.07306L7.89019 6.01197" fill="#FFFF00" style="fill:#FFFF00;fill:color(display-p3 1.0000 1.0000 0.0000);fill-opacity:1;"/>
<path d="M11.0433 4.1106L8.49412 5.83639L7.20054 4.18079" fill="#FFFF00" style="fill:#FFFF00;fill:color(display-p3 1.0000 1.0000 0.0000);fill-opacity:1;"/>
<path d="M9.88086 7.46252L8.84484 4.57385L6.86308 5.15637" fill="#FFFF00" style="fill:#FFFF00;fill:color(display-p3 1.0000 1.0000 0.0000);fill-opacity:1;"/>
<path d="M9.91846 7.427L7.29197 5.62768L8.50829 4.04561" fill="#FFFF00" style="fill:#FFFF00;fill:color(display-p3 1.0000 1.0000 0.0000);fill-opacity:1;"/>
<path d="M5.00354 4.13416L8.15667 4.07306L8.10981 6.01197" fill="#FFFF00" style="fill:#FFFF00;fill:color(display-p3 1.0000 1.0000 0.0000);fill-opacity:1;"/>
<path d="M4.95667 4.1106L7.50588 5.83639L8.79946 4.18079" fill="#FFFF00" style="fill:#FFFF00;fill:color(display-p3 1.0000 1.0000 0.0000);fill-opacity:1;"/>
<path d="M6.11914 7.46252L7.15516 4.57385L9.13692 5.15637" fill="#FFFF00" style="fill:#FFFF00;fill:color(display-p3 1.0000 1.0000 0.0000);fill-opacity:1;"/>
<path d="M6.08154 7.427L8.70803 5.62768L7.49171 4.04561" fill="#FFFF00" style="fill:#FFFF00;fill:color(display-p3 1.0000 1.0000 0.0000);fill-opacity:1;"/>
</g>
<defs>
<clipPath id="clip0_190_3245">
<rect width="16" height="10" fill="white" style="fill:white;fill-opacity:1;"/>
</clipPath>
</defs>
</svg>
