<svg width="16" height="12" viewBox="0 0 16 12" fill="none" xmlns="http://www.w3.org/2000/svg">
<g clip-path="url(#clip0_190_2992)">
<rect width="16" height="12" fill="white" style="fill:white;fill-opacity:1;"/>
<path fill-rule="evenodd" clip-rule="evenodd" d="M4 0H16V12H4V0Z" fill="#FF0000" style="fill:#FF0000;fill:color(display-p3 1.0000 0.0000 0.0000);fill-opacity:1;"/>
<path fill-rule="evenodd" clip-rule="evenodd" d="M0 0H6V12H0V0Z" fill="#006600" style="fill:#006600;fill:color(display-p3 0.0000 0.4000 0.0000);fill-opacity:1;"/>
<mask id="mask0_190_2992" style="mask-type:luminance" maskUnits="userSpaceOnUse" x="2" y="2" width="8" height="8">
<path fill-rule="evenodd" clip-rule="evenodd" d="M5.95236 9.90366C3.82212 9.90366 2.09521 8.15596 2.09521 6.00005C2.09521 3.84414 3.82212 2.09644 5.95236 2.09644C8.0826 2.09644 9.8095 3.84414 9.8095 6.00005C9.8095 8.15596 8.0826 9.90366 5.95236 9.90366Z" fill="white" style="fill:white;fill-opacity:1;"/>
</mask>
<g mask="url(#mask0_190_2992)">
<path fill-rule="evenodd" clip-rule="evenodd" d="M5.71423 2H6.21423V3.3494H5.71423V2Z" fill="#FFE017" style="fill:#FFE017;fill:color(display-p3 1.0000 0.8784 0.0902);fill-opacity:1;"/>
<path fill-rule="evenodd" clip-rule="evenodd" d="M5.71423 8.74707H6.21423V10.0001H5.71423V8.74707Z" fill="#FFE017" style="fill:#FFE017;fill:color(display-p3 1.0000 0.8784 0.0902);fill-opacity:1;"/>
<path d="M2.15725 6.20189L2.01746 5.84324C3.56005 5.2274 4.72433 4.83025 5.51432 4.65126C6.67338 4.38866 7.94692 4.19437 9.33502 4.06824L9.36909 4.45223C7.99691 4.57692 6.7397 4.76872 5.59755 5.02749C4.83107 5.20115 3.68296 5.59279 2.15725 6.20189Z" fill="#FFE017" style="fill:#FFE017;fill:color(display-p3 1.0000 0.8784 0.0902);fill-opacity:1;"/>
<path d="M9.57042 3.83204L9.45698 4.20009C8.29112 3.83204 7.34141 3.67383 6.61139 3.72283L6.58618 3.33814C7.36998 3.28552 8.36354 3.45104 9.57042 3.83204Z" fill="#FFE017" style="fill:#FFE017;fill:color(display-p3 1.0000 0.8784 0.0902);fill-opacity:1;"/>
<path d="M9.9738 5.88991L9.7583 6.20784C9.16396 5.7952 8.43174 5.58793 7.55664 5.58793V5.20239C8.50533 5.20239 9.31271 5.43093 9.9738 5.88991Z" fill="#FFE017" style="fill:#FFE017;fill:color(display-p3 1.0000 0.8784 0.0902);fill-opacity:1;"/>
<path d="M9.65101 6.00537L9.7495 6.3778C8.46818 6.72487 7.26521 6.92178 6.14049 6.96815C5.00801 7.01484 3.68808 6.81723 2.17957 6.37681L2.28516 6.00637C3.75701 6.43609 5.03733 6.62777 6.12498 6.58293C7.22039 6.53777 8.39577 6.34538 9.65101 6.00537Z" fill="#FFE017" style="fill:#FFE017;fill:color(display-p3 1.0000 0.8784 0.0902);fill-opacity:1;"/>
<path d="M9.50578 7.81799L8.90361 8.43533C7.75926 7.29205 6.7518 6.47456 5.88742 5.98338C5.00826 5.4838 3.86177 4.97651 2.44971 4.46356L2.73928 3.64709C4.19298 4.17517 5.38165 4.70112 6.30706 5.22698C7.24724 5.76124 8.31142 6.62474 9.50578 7.81799Z" fill="#FFE017" style="fill:#FFE017;fill:color(display-p3 1.0000 0.8784 0.0902);fill-opacity:1;"/>
<path d="M2.72915 8.16772L2.50122 7.8588C2.53305 7.83475 2.58984 7.79463 2.66809 7.7438C2.79729 7.65986 2.94076 7.57606 3.09512 7.49776C3.52028 7.28209 3.94675 7.14743 4.3535 7.13506C4.3734 7.13446 4.39321 7.13416 4.41293 7.13416V7.5197C4.39704 7.5197 4.38105 7.51994 4.36495 7.52043C4.02216 7.53086 3.64573 7.64971 3.26583 7.84243C3.12423 7.91426 2.99229 7.99132 2.87389 8.06825C2.83267 8.09502 2.7962 8.11978 2.76496 8.14185C2.74674 8.15472 2.73465 8.16357 2.72915 8.16772Z" fill="#FFE017" style="fill:#FFE017;fill:color(display-p3 1.0000 0.8784 0.0902);fill-opacity:1;"/>
<path d="M2.90601 8.3014L3.00194 7.92828C4.272 8.26275 5.25114 8.42943 5.93449 8.42943C6.61528 8.42943 7.62857 8.23283 8.96779 7.83826L9.07427 8.20843C7.70338 8.61233 6.65898 8.81497 5.93449 8.81497C5.21255 8.81497 4.20468 8.6434 2.90601 8.3014Z" fill="#FFE017" style="fill:#FFE017;fill:color(display-p3 1.0000 0.8784 0.0902);fill-opacity:1;"/>
<path d="M2.41125 4.84729L3.01479 4.23132L3.89845 5.11814L3.29492 5.73411L2.41125 4.84729Z" fill="#FFE017" style="fill:#FFE017;fill:color(display-p3 1.0000 0.8784 0.0902);fill-opacity:1;"/>
<path d="M7.41797 7.92392L7.86689 7.18494L9.2687 8.05716L8.81978 8.79614L7.41797 7.92392Z" fill="#FFE017" style="fill:#FFE017;fill:color(display-p3 1.0000 0.8784 0.0902);fill-opacity:1;"/>
</g>
<path fill-rule="evenodd" clip-rule="evenodd" d="M2.09521 6.00005C2.09521 8.15596 3.82212 9.90366 5.95236 9.90366C8.0826 9.90366 9.8095 8.15596 9.8095 6.00005C9.8095 3.84414 8.0826 2.09644 5.95236 2.09644C3.82212 2.09644 2.09521 3.84414 2.09521 6.00005ZM9.33331 6.04824C9.33331 7.91137 7.84093 9.42174 5.99998 9.42174C4.15903 9.42174 2.66664 7.91137 2.66664 6.04824C2.66664 4.18511 4.15903 2.67475 5.99998 2.67475C7.84093 2.67475 9.33331 4.18511 9.33331 6.04824Z" fill="#F9E813" style="fill:#F9E813;fill:color(display-p3 0.9765 0.9098 0.0745);fill-opacity:1;"/>
<path d="M3.82837 3.59265V6.72301C4.03444 7.96205 4.72867 8.58156 5.91106 8.58156C7.09346 8.58156 7.78769 7.96205 7.99376 6.72301V3.59265H3.82837Z" fill="white" style="fill:white;fill-opacity:1;"/>
<path d="M3.0426 3H8.57942V6.71137L8.57479 6.73706C8.30732 8.21984 7.35914 9 5.81101 9C4.26288 9 3.3147 8.21984 3.04724 6.73706L3.0426 6.71137V3Z" fill="#C51918" style="fill:#C51918;fill:color(display-p3 0.7711 0.0994 0.0956);fill-opacity:1;"/>
<path fill-rule="evenodd" clip-rule="evenodd" d="M4.52378 3.953H3.62378V4.853H4.52378V3.953ZM8.02378 3.953H7.12378V4.853H8.02378V3.953Z" fill="#F9E813" style="fill:#F9E813;fill:color(display-p3 0.9765 0.9098 0.0745);fill-opacity:1;"/>
<path fill-rule="evenodd" clip-rule="evenodd" d="M3.62378 5.953H4.52378V6.853H3.62378V5.953ZM7.17357 5.96717H8.07357V6.86717H7.17357V5.96717ZM7.18719 7.42463H6.28719V8.32463H7.18719V7.42463Z" fill="#F9E813" style="fill:#F9E813;fill:color(display-p3 0.9765 0.9098 0.0745);fill-opacity:1;"/>
<path fill-rule="evenodd" clip-rule="evenodd" d="M4.32422 7.42065H5.22422V8.32065H4.32422V7.42065Z" fill="#F9E813" style="fill:#F9E813;fill:color(display-p3 0.9765 0.9098 0.0745);fill-opacity:1;"/>
<path d="M4.42603 4.35535H7.39589V6.5758C7.39589 6.5758 7.1755 7.72245 5.91096 7.72245C4.64641 7.72245 4.42603 6.5758 4.42603 6.5758V4.35535Z" fill="#F7FCFF" style="fill:#F7FCFF;fill:color(display-p3 0.9700 0.9870 1.0000);fill-opacity:1;"/>
<path d="M5.61902 4.60242H6.27918V5.08315C6.27918 5.08315 6.2302 5.33141 5.9491 5.33141C5.66801 5.33141 5.61902 5.08315 5.61902 5.08315V4.60242Z" fill="#013399" style="fill:#013399;fill:color(display-p3 0.0039 0.2000 0.6000);fill-opacity:1;"/>
<path d="M5.61902 5.6626H6.27918V6.14333C6.27918 6.14333 6.2302 6.39159 5.9491 6.39159C5.66801 6.39159 5.61902 6.14333 5.61902 6.14333V5.6626Z" fill="#013399" style="fill:#013399;fill:color(display-p3 0.0039 0.2000 0.6000);fill-opacity:1;"/>
<path d="M6.4762 5.6626H7.13636V6.14333C7.13636 6.14333 7.08737 6.39159 6.80628 6.39159C6.52519 6.39159 6.4762 6.14333 6.4762 6.14333V5.6626Z" fill="#013399" style="fill:#013399;fill:color(display-p3 0.0039 0.2000 0.6000);fill-opacity:1;"/>
<path d="M4.76184 5.6626H5.42201V6.14333C5.42201 6.14333 5.37302 6.39159 5.09192 6.39159C4.81083 6.39159 4.76184 6.14333 4.76184 6.14333V5.6626Z" fill="#013399" style="fill:#013399;fill:color(display-p3 0.0039 0.2000 0.6000);fill-opacity:1;"/>
<path d="M5.61902 6.7229H6.27918V7.20364C6.27918 7.20364 6.2302 7.45189 5.9491 7.45189C5.66801 7.45189 5.61902 7.20364 5.61902 7.20364V6.7229Z" fill="#013399" style="fill:#013399;fill:color(display-p3 0.0039 0.2000 0.6000);fill-opacity:1;"/>
</g>
<defs>
<clipPath id="clip0_190_2992">
<rect width="16" height="12" fill="white" style="fill:white;fill-opacity:1;"/>
</clipPath>
</defs>
</svg>
