<svg width="16" height="10" viewBox="0 0 16 10" fill="none" xmlns="http://www.w3.org/2000/svg">
<g clip-path="url(#clip0_190_514)">
<path d="M16 0H0V5H16V0Z" fill="#FECB00" style="fill:#FECB00;fill:color(display-p3 0.9961 0.7961 0.0000);fill-opacity:1;"/>
<path d="M16 5H0V10H16V5Z" fill="#EA2839" style="fill:#EA2839;fill:color(display-p3 0.9176 0.1569 0.2235);fill-opacity:1;"/>
<path d="M16 3.33337H0V6.66671H16V3.33337Z" fill="#34B233" style="fill:#34B233;fill:color(display-p3 0.2039 0.6980 0.2000);fill-opacity:1;"/>
<path d="M6.7229 5.35163L8.00005 1.66663L9.2772 5.35163H6.7229Z" fill="white" style="fill:white;fill-opacity:1;"/>
<path d="M9.03329 6.05539L5.68966 8.33285L6.96681 4.64785L9.03329 6.05539Z" fill="white" style="fill:white;fill-opacity:1;"/>
<path d="M7.60523 6.49041L4.2616 4.21296L8.39455 4.21296L7.60523 6.49041Z" fill="white" style="fill:white;fill-opacity:1;"/>
<path d="M7.60522 4.21295L11.7382 4.21295L8.39454 6.4904L7.60522 4.21295Z" fill="white" style="fill:white;fill-opacity:1;"/>
<path d="M9.03312 4.6478L10.3103 8.3328L6.96664 6.05535L9.03312 4.6478Z" fill="white" style="fill:white;fill-opacity:1;"/>
</g>
<defs>
<clipPath id="clip0_190_514">
<rect width="16" height="10" fill="white" style="fill:white;fill-opacity:1;"/>
</clipPath>
</defs>
</svg>
