<svg width="16" height="9" viewBox="0 0 16 9" fill="none" xmlns="http://www.w3.org/2000/svg">
<g clip-path="url(#clip0_190_817)">
<path d="M16 0H0V8.42105H16V0Z" fill="#B22234" style="fill:#B22234;fill:color(display-p3 0.6980 0.1333 0.2039);fill-opacity:1;"/>
<path d="M0 0.97168H16ZM16 2.26723H0ZM0 3.56277H16ZM16 4.85832H0ZM0 6.15387H16ZM16 7.44941H0Z" fill="black" style="fill:black;fill-opacity:1;"/>
<path d="M0 0.97168H16M16 2.26723H0M0 3.56277H16M16 4.85832H0M0 6.15387H16M16 7.44941H0" stroke="white" style="stroke:white;stroke-opacity:1;" stroke-width="0.647773"/>
<path d="M6.4 0H0V4.53441H6.4V0Z" fill="#3C3B6E" style="fill:#3C3B6E;fill:color(display-p3 0.2353 0.2314 0.4314);fill-opacity:1;"/>
<path d="M0.533293 0.194336L0.685594 0.663069L0.286865 0.373376H0.77972L0.380992 0.663069L0.533293 0.194336Z" fill="white" style="fill:white;fill-opacity:1;"/>
<path d="M0.533293 1.1012L0.685594 1.56993L0.286865 1.28024H0.77972L0.380992 1.56993L0.533293 1.1012Z" fill="white" style="fill:white;fill-opacity:1;"/>
<path d="M0.533293 2.00806L0.685594 2.47679L0.286865 2.1871H0.77972L0.380992 2.47679L0.533293 2.00806Z" fill="white" style="fill:white;fill-opacity:1;"/>
<path d="M0.533293 2.91492L0.685594 3.38365L0.286865 3.09396H0.77972L0.380992 3.38365L0.533293 2.91492Z" fill="white" style="fill:white;fill-opacity:1;"/>
<path d="M0.533293 3.8219L0.685594 4.29063L0.286865 4.00094H0.77972L0.380992 4.29063L0.533293 3.8219Z" fill="white" style="fill:white;fill-opacity:1;"/>
<path d="M1.06662 0.647827L1.21892 1.11656L0.82019 0.826867H1.31305L0.914317 1.11656L1.06662 0.647827Z" fill="white" style="fill:white;fill-opacity:1;"/>
<path d="M1.06662 1.55469L1.21892 2.02342L0.82019 1.73373H1.31305L0.914317 2.02342L1.06662 1.55469Z" fill="white" style="fill:white;fill-opacity:1;"/>
<path d="M1.06662 2.46155L1.21892 2.93028L0.82019 2.64059H1.31305L0.914317 2.93028L1.06662 2.46155Z" fill="white" style="fill:white;fill-opacity:1;"/>
<path d="M1.06662 3.36841L1.21892 3.83714L0.82019 3.54745H1.31305L0.914317 3.83714L1.06662 3.36841Z" fill="white" style="fill:white;fill-opacity:1;"/>
<path d="M1.59994 0.194336L1.75224 0.663069L1.35352 0.373376H1.84637L1.44764 0.663069L1.59994 0.194336Z" fill="white" style="fill:white;fill-opacity:1;"/>
<path d="M1.59994 1.1012L1.75224 1.56993L1.35352 1.28024H1.84637L1.44764 1.56993L1.59994 1.1012Z" fill="white" style="fill:white;fill-opacity:1;"/>
<path d="M1.59994 2.00806L1.75224 2.47679L1.35352 2.1871H1.84637L1.44764 2.47679L1.59994 2.00806Z" fill="white" style="fill:white;fill-opacity:1;"/>
<path d="M1.59994 2.91492L1.75224 3.38365L1.35352 3.09396H1.84637L1.44764 3.38365L1.59994 2.91492Z" fill="white" style="fill:white;fill-opacity:1;"/>
<path d="M1.59994 3.8219L1.75224 4.29063L1.35352 4.00094H1.84637L1.44764 4.29063L1.59994 3.8219Z" fill="white" style="fill:white;fill-opacity:1;"/>
<path d="M2.13327 0.647827L2.28557 1.11656L1.88684 0.826867H2.3797L1.98097 1.11656L2.13327 0.647827Z" fill="white" style="fill:white;fill-opacity:1;"/>
<path d="M2.13327 1.55469L2.28557 2.02342L1.88684 1.73373H2.3797L1.98097 2.02342L2.13327 1.55469Z" fill="white" style="fill:white;fill-opacity:1;"/>
<path d="M2.13327 2.46155L2.28557 2.93028L1.88684 2.64059H2.3797L1.98097 2.93028L2.13327 2.46155Z" fill="white" style="fill:white;fill-opacity:1;"/>
<path d="M2.13327 3.36841L2.28557 3.83714L1.88684 3.54745H2.3797L1.98097 3.83714L2.13327 3.36841Z" fill="white" style="fill:white;fill-opacity:1;"/>
<path d="M2.66659 0.194336L2.81889 0.663069L2.42017 0.373376H2.91302L2.51429 0.663069L2.66659 0.194336Z" fill="white" style="fill:white;fill-opacity:1;"/>
<path d="M2.66659 1.1012L2.81889 1.56993L2.42017 1.28024H2.91302L2.51429 1.56993L2.66659 1.1012Z" fill="white" style="fill:white;fill-opacity:1;"/>
<path d="M2.66659 2.00806L2.81889 2.47679L2.42017 2.1871H2.91302L2.51429 2.47679L2.66659 2.00806Z" fill="white" style="fill:white;fill-opacity:1;"/>
<path d="M2.66659 2.91492L2.81889 3.38365L2.42017 3.09396H2.91302L2.51429 3.38365L2.66659 2.91492Z" fill="white" style="fill:white;fill-opacity:1;"/>
<path d="M2.66659 3.8219L2.81889 4.29063L2.42017 4.00094H2.91302L2.51429 4.29063L2.66659 3.8219Z" fill="white" style="fill:white;fill-opacity:1;"/>
<path d="M3.19992 0.647827L3.35222 1.11656L2.95349 0.826867H3.44635L3.04762 1.11656L3.19992 0.647827Z" fill="white" style="fill:white;fill-opacity:1;"/>
<path d="M3.19992 1.55469L3.35222 2.02342L2.95349 1.73373H3.44635L3.04762 2.02342L3.19992 1.55469Z" fill="white" style="fill:white;fill-opacity:1;"/>
<path d="M3.19992 2.46155L3.35222 2.93028L2.95349 2.64059H3.44635L3.04762 2.93028L3.19992 2.46155Z" fill="white" style="fill:white;fill-opacity:1;"/>
<path d="M3.19992 3.36841L3.35222 3.83714L2.95349 3.54745H3.44635L3.04762 3.83714L3.19992 3.36841Z" fill="white" style="fill:white;fill-opacity:1;"/>
<path d="M3.73324 0.194336L3.88554 0.663069L3.48682 0.373376H3.97967L3.58094 0.663069L3.73324 0.194336Z" fill="white" style="fill:white;fill-opacity:1;"/>
<path d="M3.73324 1.1012L3.88554 1.56993L3.48682 1.28024H3.97967L3.58094 1.56993L3.73324 1.1012Z" fill="white" style="fill:white;fill-opacity:1;"/>
<path d="M3.73324 2.00806L3.88554 2.47679L3.48682 2.1871H3.97967L3.58094 2.47679L3.73324 2.00806Z" fill="white" style="fill:white;fill-opacity:1;"/>
<path d="M3.73324 2.91492L3.88554 3.38365L3.48682 3.09396H3.97967L3.58094 3.38365L3.73324 2.91492Z" fill="white" style="fill:white;fill-opacity:1;"/>
<path d="M3.73324 3.8219L3.88554 4.29063L3.48682 4.00094H3.97967L3.58094 4.29063L3.73324 3.8219Z" fill="white" style="fill:white;fill-opacity:1;"/>
<path d="M4.26657 0.647827L4.41887 1.11656L4.02014 0.826867H4.513L4.11427 1.11656L4.26657 0.647827Z" fill="white" style="fill:white;fill-opacity:1;"/>
<path d="M4.26657 1.55469L4.41887 2.02342L4.02014 1.73373H4.513L4.11427 2.02342L4.26657 1.55469Z" fill="white" style="fill:white;fill-opacity:1;"/>
<path d="M4.26657 2.46155L4.41887 2.93028L4.02014 2.64059H4.513L4.11427 2.93028L4.26657 2.46155Z" fill="white" style="fill:white;fill-opacity:1;"/>
<path d="M4.26657 3.36841L4.41887 3.83714L4.02014 3.54745H4.513L4.11427 3.83714L4.26657 3.36841Z" fill="white" style="fill:white;fill-opacity:1;"/>
<path d="M4.80002 0.194336L4.95232 0.663069L4.55359 0.373376H5.04644L4.64772 0.663069L4.80002 0.194336Z" fill="white" style="fill:white;fill-opacity:1;"/>
<path d="M4.80002 1.1012L4.95232 1.56993L4.55359 1.28024H5.04644L4.64772 1.56993L4.80002 1.1012Z" fill="white" style="fill:white;fill-opacity:1;"/>
<path d="M4.80002 2.00806L4.95232 2.47679L4.55359 2.1871H5.04644L4.64772 2.47679L4.80002 2.00806Z" fill="white" style="fill:white;fill-opacity:1;"/>
<path d="M4.80002 2.91492L4.95232 3.38365L4.55359 3.09396H5.04644L4.64772 3.38365L4.80002 2.91492Z" fill="white" style="fill:white;fill-opacity:1;"/>
<path d="M4.80002 3.8219L4.95232 4.29063L4.55359 4.00094H5.04644L4.64772 4.29063L4.80002 3.8219Z" fill="white" style="fill:white;fill-opacity:1;"/>
<path d="M5.33334 0.647827L5.48564 1.11656L5.08691 0.826867H5.57977L5.18104 1.11656L5.33334 0.647827Z" fill="white" style="fill:white;fill-opacity:1;"/>
<path d="M5.33334 1.55469L5.48564 2.02342L5.08691 1.73373H5.57977L5.18104 2.02342L5.33334 1.55469Z" fill="white" style="fill:white;fill-opacity:1;"/>
<path d="M5.33334 2.46155L5.48564 2.93028L5.08691 2.64059H5.57977L5.18104 2.93028L5.33334 2.46155Z" fill="white" style="fill:white;fill-opacity:1;"/>
<path d="M5.33334 3.36841L5.48564 3.83714L5.08691 3.54745H5.57977L5.18104 3.83714L5.33334 3.36841Z" fill="white" style="fill:white;fill-opacity:1;"/>
<path d="M5.86667 0.194336L6.01897 0.663069L5.62024 0.373376H6.11309L5.71437 0.663069L5.86667 0.194336Z" fill="white" style="fill:white;fill-opacity:1;"/>
<path d="M5.86667 1.1012L6.01897 1.56993L5.62024 1.28024H6.11309L5.71437 1.56993L5.86667 1.1012Z" fill="white" style="fill:white;fill-opacity:1;"/>
<path d="M5.86667 2.00806L6.01897 2.47679L5.62024 2.1871H6.11309L5.71437 2.47679L5.86667 2.00806Z" fill="white" style="fill:white;fill-opacity:1;"/>
<path d="M5.86667 2.91492L6.01897 3.38365L5.62024 3.09396H6.11309L5.71437 3.38365L5.86667 2.91492Z" fill="white" style="fill:white;fill-opacity:1;"/>
<path d="M5.86667 3.8219L6.01897 4.29063L5.62024 4.00094H6.11309L5.71437 4.29063L5.86667 3.8219Z" fill="white" style="fill:white;fill-opacity:1;"/>
</g>
<defs>
<clipPath id="clip0_190_817">
<rect width="16" height="8.42105" fill="white" style="fill:white;fill-opacity:1;"/>
</clipPath>
</defs>
</svg>
