<svg width="18" height="14" viewBox="0 0 18 14" fill="none" xmlns="http://www.w3.org/2000/svg">
<g clip-path="url(#clip0_190_577)">
<rect x="1" y="1" width="16" height="12" fill="white" style="fill:white;fill-opacity:1;"/>
<path fill-rule="evenodd" clip-rule="evenodd" d="M1 1V13H17V1H1Z" fill="white" style="fill:white;fill-opacity:1;"/>
<path d="M1 0.95H0.95V1V13V13.05H1H17H17.05V13V1V0.95H17H1Z" stroke="black" stroke-opacity="0.25" style="stroke:black;stroke-opacity:0.25;" stroke-width="0.1"/>
<path d="M1 0.5H0.5V1V13V13.5H1H17H17.5V13V1V0.5H17H1Z" fill="white" stroke="black" style="fill:white;fill-opacity:1;stroke:black;stroke-opacity:1;"/>
<path fill-rule="evenodd" clip-rule="evenodd" d="M8.89336 10.2858C10.6015 10.2858 11.9862 8.86776 11.9862 7.11854C11.9862 5.36932 10.6015 3.95129 8.89336 3.95129C7.18524 3.95129 5.80054 5.36932 5.80054 7.11854C5.80054 8.86776 7.18524 10.2858 8.89336 10.2858Z" fill="#3D58DB" style="fill:#3D58DB;fill:color(display-p3 0.2374 0.3433 0.8590);fill-opacity:1;"/>
<mask id="mask0_190_577" style="mask-type:luminance" maskUnits="userSpaceOnUse" x="5" y="3" width="7" height="8">
<path fill-rule="evenodd" clip-rule="evenodd" d="M8.89336 10.2858C10.6015 10.2858 11.9862 8.86776 11.9862 7.11854C11.9862 5.36932 10.6015 3.95129 8.89336 3.95129C7.18524 3.95129 5.80054 5.36932 5.80054 7.11854C5.80054 8.86776 7.18524 10.2858 8.89336 10.2858Z" fill="white" style="fill:white;fill-opacity:1;"/>
</mask>
<g mask="url(#mask0_190_577)">
<path fill-rule="evenodd" clip-rule="evenodd" d="M12.0944 7.36114C12.0944 7.36114 11.9208 5.86768 10.6351 5.78661C9.34945 5.70553 9.00279 6.88182 8.92859 7.19346C8.8544 7.50511 8.66662 8.33645 7.31294 8.33645C5.95927 8.33645 5.83716 6.22252 5.83716 6.22252V3.72986H12.0944V7.36114Z" fill="#E31D1C" style="fill:#E31D1C;fill:color(display-p3 0.8902 0.1137 0.1098);fill-opacity:1;"/>
</g>
<path fill-rule="evenodd" clip-rule="evenodd" d="M4.64967 2.02612L5.10715 2.43989L2.98702 4.91584L2.52954 4.50208L4.64967 2.02612ZM5.40416 2.6957L5.86165 3.10947L3.81751 5.54955L3.36003 5.13579L5.40416 2.6957ZM6.61268 3.78729L6.1552 3.37353L4.10539 5.83213L4.56287 6.24589L6.61268 3.78729Z" fill="#272727" style="fill:#272727;fill:color(display-p3 0.1529 0.1529 0.1529);fill-opacity:1;"/>
<path d="M5.10715 2.43989L5.16412 2.48867L5.21159 2.43322L5.15746 2.38426L5.10715 2.43989ZM4.64967 2.02612L4.69998 1.9705L4.64282 1.91881L4.5927 1.97734L4.64967 2.02612ZM2.98702 4.91584L2.93671 4.97146L2.99387 5.02315L3.04399 4.96462L2.98702 4.91584ZM2.52954 4.50208L2.47257 4.45329L2.4251 4.50874L2.47923 4.5577L2.52954 4.50208ZM5.86165 3.10947L5.91914 3.15763L5.96551 3.10228L5.91195 3.05384L5.86165 3.10947ZM5.40416 2.6957L5.45447 2.64008L5.3967 2.58782L5.34667 2.64754L5.40416 2.6957ZM3.81751 5.54955L3.76721 5.60517L3.82498 5.65743L3.87501 5.59771L3.81751 5.54955ZM3.36003 5.13579L3.30254 5.08762L3.25617 5.14297L3.30973 5.19141L3.36003 5.13579ZM6.1552 3.37353L6.20551 3.31791L6.1476 3.26553L6.0976 3.3255L6.1552 3.37353ZM6.61268 3.78729L6.67029 3.83532L6.71642 3.77999L6.66299 3.73167L6.61268 3.78729ZM4.10539 5.83213L4.04779 5.7841L4.00166 5.83943L4.05508 5.88776L4.10539 5.83213ZM4.56287 6.24589L4.51256 6.30152L4.57048 6.3539L4.62048 6.29392L4.56287 6.24589ZM5.15746 2.38426L4.69998 1.9705L4.59936 2.08175L5.05684 2.49551L5.15746 2.38426ZM3.04399 4.96462L5.16412 2.48867L5.05018 2.3911L2.93005 4.86706L3.04399 4.96462ZM2.47923 4.5577L2.93671 4.97146L3.03733 4.86021L2.57985 4.44645L2.47923 4.5577ZM4.5927 1.97734L2.47257 4.45329L2.58651 4.55086L4.70664 2.0749L4.5927 1.97734ZM5.91195 3.05384L5.45447 2.64008L5.35386 2.75133L5.81134 3.16509L5.91195 3.05384ZM3.87501 5.59771L5.91914 3.15763L5.80415 3.0613L3.76002 5.50139L3.87501 5.59771ZM3.30973 5.19141L3.76721 5.60517L3.86782 5.49392L3.41034 5.08016L3.30973 5.19141ZM5.34667 2.64754L3.30254 5.08762L3.41753 5.18395L5.46166 2.74386L5.34667 2.64754ZM6.1049 3.42915L6.56238 3.84292L6.66299 3.73167L6.20551 3.31791L6.1049 3.42915ZM4.163 5.88016L6.21281 3.42156L6.0976 3.3255L4.04779 5.7841L4.163 5.88016ZM4.61318 6.19027L4.1557 5.77651L4.05508 5.88776L4.51256 6.30152L4.61318 6.19027ZM6.55508 3.73927L4.50527 6.19787L4.62048 6.29392L6.67029 3.83532L6.55508 3.73927Z" fill="#272727" style="fill:#272727;fill:color(display-p3 0.1529 0.1529 0.1529);fill-opacity:1;"/>
<path fill-rule="evenodd" clip-rule="evenodd" d="M13.2925 2.02612L12.835 2.43989L14.9551 4.91584L15.4126 4.50208L13.2925 2.02612ZM12.538 2.6957L12.0805 3.10947L14.1246 5.54955L14.5821 5.13579L12.538 2.6957ZM11.3295 3.78729L11.7869 3.37353L13.8367 5.83213L13.3793 6.24589L11.3295 3.78729Z" fill="#272727" style="fill:#272727;fill:color(display-p3 0.1529 0.1529 0.1529);fill-opacity:1;"/>
<path d="M12.835 2.43989L12.778 2.48867L12.7305 2.43322L12.7847 2.38426L12.835 2.43989ZM13.2925 2.02612L13.2422 1.9705L13.2993 1.91881L13.3494 1.97734L13.2925 2.02612ZM14.9551 4.91584L15.0054 4.97146L14.9483 5.02315L14.8981 4.96462L14.9551 4.91584ZM15.4126 4.50208L15.4696 4.45329L15.517 4.50874L15.4629 4.5577L15.4126 4.50208ZM12.0805 3.10947L12.023 3.15763L11.9766 3.10228L12.0302 3.05384L12.0805 3.10947ZM12.538 2.6957L12.4877 2.64008L12.5454 2.58782L12.5955 2.64754L12.538 2.6957ZM14.1246 5.54955L14.1749 5.60517L14.1172 5.65743L14.0671 5.59771L14.1246 5.54955ZM14.5821 5.13579L14.6396 5.08762L14.686 5.14297L14.6324 5.19141L14.5821 5.13579ZM11.7869 3.37353L11.7366 3.31791L11.7945 3.26553L11.8445 3.3255L11.7869 3.37353ZM11.3295 3.78729L11.2718 3.83532L11.2257 3.77999L11.2791 3.73167L11.3295 3.78729ZM13.8367 5.83213L13.8944 5.7841L13.9405 5.83943L13.8871 5.88776L13.8367 5.83213ZM13.3793 6.24589L13.4296 6.30152L13.3717 6.3539L13.3217 6.29392L13.3793 6.24589ZM12.7847 2.38426L13.2422 1.9705L13.3428 2.08175L12.8853 2.49551L12.7847 2.38426ZM14.8981 4.96462L12.778 2.48867L12.892 2.3911L15.0121 4.86706L14.8981 4.96462ZM15.4629 4.5577L15.0054 4.97146L14.9048 4.86021L15.3623 4.44645L15.4629 4.5577ZM13.3494 1.97734L15.4696 4.45329L15.3556 4.55086L13.2355 2.0749L13.3494 1.97734ZM12.0302 3.05384L12.4877 2.64008L12.5883 2.75133L12.1308 3.16509L12.0302 3.05384ZM14.0671 5.59771L12.023 3.15763L12.138 3.0613L14.1821 5.50139L14.0671 5.59771ZM14.6324 5.19141L14.1749 5.60517L14.0743 5.49392L14.5318 5.08016L14.6324 5.19141ZM12.5955 2.64754L14.6396 5.08762L14.5246 5.18395L12.4805 2.74386L12.5955 2.64754ZM11.8372 3.42915L11.3798 3.84292L11.2791 3.73167L11.7366 3.31791L11.8372 3.42915ZM13.7791 5.88016L11.7293 3.42156L11.8445 3.3255L13.8944 5.7841L13.7791 5.88016ZM13.329 6.19027L13.7864 5.77651L13.8871 5.88776L13.4296 6.30152L13.329 6.19027ZM11.3871 3.73927L13.4369 6.19787L13.3217 6.29392L11.2718 3.83532L11.3871 3.73927Z" fill="#272727" style="fill:#272727;fill:color(display-p3 0.1529 0.1529 0.1529);fill-opacity:1;"/>
<path fill-rule="evenodd" clip-rule="evenodd" d="M4.64967 12.2458L5.10715 11.8321L2.98702 9.35613L2.52954 9.7699L4.64967 12.2458ZM5.40416 11.5763L5.86165 11.1625L3.81751 8.72242L3.36003 9.13619L5.40416 11.5763ZM6.61268 10.4847L6.1552 10.8984L4.10539 8.43984L4.56287 8.02608L6.61268 10.4847Z" fill="#272727" style="fill:#272727;fill:color(display-p3 0.1529 0.1529 0.1529);fill-opacity:1;"/>
<path d="M5.10715 11.8321L5.16412 11.7833L5.21159 11.8387L5.15746 11.8877L5.10715 11.8321ZM4.64967 12.2458L4.69998 12.3015L4.64282 12.3532L4.5927 12.2946L4.64967 12.2458ZM2.98702 9.35613L2.93671 9.30051L2.99387 9.24882L3.04399 9.30735L2.98702 9.35613ZM2.52954 9.7699L2.47257 9.81868L2.4251 9.76324L2.47923 9.71427L2.52954 9.7699ZM5.86165 11.1625L5.91914 11.1143L5.96551 11.1697L5.91195 11.2181L5.86165 11.1625ZM5.40416 11.5763L5.45447 11.6319L5.3967 11.6841L5.34667 11.6244L5.40416 11.5763ZM3.81751 8.72242L3.76721 8.6668L3.82498 8.61455L3.87501 8.67426L3.81751 8.72242ZM3.36003 9.13619L3.30254 9.18435L3.25617 9.129L3.30973 9.08056L3.36003 9.13619ZM6.1552 10.8984L6.20551 10.9541L6.1476 11.0064L6.0976 10.9465L6.1552 10.8984ZM6.61268 10.4847L6.67029 10.4367L6.71642 10.492L6.66299 10.5403L6.61268 10.4847ZM4.10539 8.43984L4.04779 8.48787L4.00166 8.43254L4.05508 8.38422L4.10539 8.43984ZM4.56287 8.02608L4.51256 7.97045L4.57048 7.91808L4.62048 7.97805L4.56287 8.02608ZM5.15746 11.8877L4.69998 12.3015L4.59936 12.1902L5.05684 11.7765L5.15746 11.8877ZM3.04399 9.30735L5.16412 11.7833L5.05018 11.8809L2.93005 9.40492L3.04399 9.30735ZM2.47923 9.71427L2.93671 9.30051L3.03733 9.41176L2.57985 9.82552L2.47923 9.71427ZM4.5927 12.2946L2.47257 9.81868L2.58651 9.72112L4.70664 12.1971L4.5927 12.2946ZM5.91195 11.2181L5.45447 11.6319L5.35386 11.5206L5.81134 11.1069L5.91195 11.2181ZM3.87501 8.67426L5.91914 11.1143L5.80415 11.2107L3.76002 8.77059L3.87501 8.67426ZM3.30973 9.08056L3.76721 8.6668L3.86782 8.77805L3.41034 9.19181L3.30973 9.08056ZM5.34667 11.6244L3.30254 9.18435L3.41753 9.08802L5.46166 11.5281L5.34667 11.6244ZM6.1049 10.8428L6.56238 10.4291L6.66299 10.5403L6.20551 10.9541L6.1049 10.8428ZM4.163 8.39181L6.21281 10.8504L6.0976 10.9465L4.04779 8.48787L4.163 8.39181ZM4.61318 8.0817L4.1557 8.49547L4.05508 8.38422L4.51256 7.97045L4.61318 8.0817ZM6.55508 10.5327L4.50527 8.07411L4.62048 7.97805L6.67029 10.4367L6.55508 10.5327Z" fill="#272727" style="fill:#272727;fill:color(display-p3 0.1529 0.1529 0.1529);fill-opacity:1;"/>
<path fill-rule="evenodd" clip-rule="evenodd" d="M13.2925 12.2458L12.835 11.8321L14.9551 9.35613L15.4126 9.7699L13.2925 12.2458ZM12.538 11.5763L12.0805 11.1625L14.1246 8.72242L14.5821 9.13619L12.538 11.5763ZM11.3295 10.4847L11.7869 10.8984L13.8367 8.43984L13.3793 8.02608L11.3295 10.4847Z" fill="#272727" style="fill:#272727;fill:color(display-p3 0.1529 0.1529 0.1529);fill-opacity:1;"/>
<path d="M12.835 11.8321L12.778 11.7833L12.7305 11.8387L12.7847 11.8877L12.835 11.8321ZM13.2925 12.2458L13.2422 12.3015L13.2993 12.3532L13.3494 12.2946L13.2925 12.2458ZM14.9551 9.35613L15.0054 9.30051L14.9483 9.24882L14.8981 9.30735L14.9551 9.35613ZM15.4126 9.7699L15.4696 9.81868L15.517 9.76324L15.4629 9.71427L15.4126 9.7699ZM12.0805 11.1625L12.023 11.1143L11.9766 11.1697L12.0302 11.2181L12.0805 11.1625ZM12.538 11.5763L12.4877 11.6319L12.5454 11.6841L12.5955 11.6244L12.538 11.5763ZM14.1246 8.72242L14.1749 8.6668L14.1172 8.61455L14.0671 8.67426L14.1246 8.72242ZM14.5821 9.13619L14.6396 9.18435L14.686 9.129L14.6324 9.08056L14.5821 9.13619ZM11.7869 10.8984L11.7366 10.9541L11.7945 11.0064L11.8445 10.9465L11.7869 10.8984ZM11.3295 10.4847L11.2718 10.4367L11.2257 10.492L11.2791 10.5403L11.3295 10.4847ZM13.8367 8.43984L13.8944 8.48787L13.9405 8.43254L13.8871 8.38422L13.8367 8.43984ZM13.3793 8.02608L13.4296 7.97045L13.3717 7.91808L13.3217 7.97805L13.3793 8.02608ZM12.7847 11.8877L13.2422 12.3015L13.3428 12.1902L12.8853 11.7765L12.7847 11.8877ZM14.8981 9.30735L12.778 11.7833L12.892 11.8809L15.0121 9.40492L14.8981 9.30735ZM15.4629 9.71427L15.0054 9.30051L14.9048 9.41176L15.3623 9.82552L15.4629 9.71427ZM13.3494 12.2946L15.4696 9.81868L15.3556 9.72112L13.2355 12.1971L13.3494 12.2946ZM12.0302 11.2181L12.4877 11.6319L12.5883 11.5206L12.1308 11.1069L12.0302 11.2181ZM14.0671 8.67426L12.023 11.1143L12.138 11.2107L14.1821 8.77059L14.0671 8.67426ZM14.6324 9.08056L14.1749 8.6668L14.0743 8.77805L14.5318 9.19181L14.6324 9.08056ZM12.5955 11.6244L14.6396 9.18435L14.5246 9.08802L12.4805 11.5281L12.5955 11.6244ZM11.8372 10.8428L11.3798 10.4291L11.2791 10.5403L11.7366 10.9541L11.8372 10.8428ZM13.7791 8.39181L11.7293 10.8504L11.8445 10.9465L13.8944 8.48787L13.7791 8.39181ZM13.329 8.0817L13.7864 8.49547L13.8871 8.38422L13.4296 7.97045L13.329 8.0817ZM11.3871 10.5327L13.4369 8.07411L13.3217 7.97805L11.2718 10.4367L11.3871 10.5327Z" fill="#272727" style="fill:#272727;fill:color(display-p3 0.1529 0.1529 0.1529);fill-opacity:1;"/>
</g>
<rect x="0.95" y="0.95" width="16.1" height="12.1" stroke="black" stroke-opacity="0.25" style="stroke:black;stroke-opacity:0.25;" stroke-width="0.1"/>
<defs>
<clipPath id="clip0_190_577">
<rect x="1" y="1" width="16" height="12" fill="white" style="fill:white;fill-opacity:1;"/>
</clipPath>
</defs>
</svg>
