<svg width="10" height="12" viewBox="0 0 10 12" fill="none" xmlns="http://www.w3.org/2000/svg">
<g clip-path="url(#clip0_190_2090)">
<path d="M0.433105 5.80943H8.68563L0.433105 0.641479V11.6448H8.68563L0.433105 3.39232V5.80943Z" fill="#DC143C" stroke="#003893" style="fill:#DC143C;fill:color(display-p3 0.8627 0.0784 0.2353);fill-opacity:1;stroke:#003893;stroke:color(display-p3 0.0000 0.2196 0.5765);stroke-opacity:1;" stroke-width="0.71036"/>
<path d="M0.433105 5.80943H8.68563L0.433105 0.641479V11.6448H8.68563L0.433105 3.39232V5.80943Z" fill="#DC143C" style="fill:#DC143C;fill:color(display-p3 0.8627 0.0784 0.2353);fill-opacity:1;"/>
<path d="M0.852539 3.87146C0.982311 4.20165 1.20852 4.4851 1.5017 4.68489C1.79488 4.88467 2.14143 4.99152 2.49621 4.99152C2.85098 4.99152 3.19753 4.88467 3.49071 4.68489C3.78389 4.4851 4.0101 4.20165 4.13987 3.87146C4.13987 4.30739 3.9667 4.72546 3.65845 5.03371C3.35021 5.34195 2.93213 5.51513 2.49621 5.51513C2.06028 5.51513 1.64221 5.34195 1.33396 5.03371C1.02571 4.72546 0.852539 4.30739 0.852539 3.87146Z" fill="white" style="fill:white;fill-opacity:1;"/>
<path d="M2.49633 5.40122C2.91876 5.40122 3.26121 5.05877 3.26121 4.63634C3.26121 4.21391 2.91876 3.87146 2.49633 3.87146C2.07389 3.87146 1.73145 4.21391 1.73145 4.63634C1.73145 5.05877 2.07389 5.40122 2.49633 5.40122Z" fill="white" style="fill:white;fill-opacity:1;"/>
<path d="M2.78895 3.92973L2.70348 3.59454L2.49625 3.8715" fill="white" style="fill:white;fill-opacity:1;"/>
<path d="M3.03717 4.09557L3.08647 3.75319L2.78903 3.92976" fill="white" style="fill:white;fill-opacity:1;"/>
<path d="M3.20296 4.34364L3.37953 4.04619L3.03715 4.0955" fill="white" style="fill:white;fill-opacity:1;"/>
<path d="M3.26106 4.63643L3.53802 4.42919L3.20284 4.34372" fill="white" style="fill:white;fill-opacity:1;"/>
<path d="M3.20284 4.92909L3.53803 4.84362L3.26106 4.63638" fill="white" style="fill:white;fill-opacity:1;"/>
<path d="M3.03712 5.17731L3.3795 5.22661L3.20293 4.92916" fill="white" style="fill:white;fill-opacity:1;"/>
<path d="M2.20348 3.92973L2.28895 3.59454L2.49618 3.8715" fill="white" style="fill:white;fill-opacity:1;"/>
<path d="M1.95538 4.09557L1.90608 3.75319L2.20353 3.92976" fill="white" style="fill:white;fill-opacity:1;"/>
<path d="M1.78959 4.34364L1.61302 4.04619L1.9554 4.0955" fill="white" style="fill:white;fill-opacity:1;"/>
<path d="M1.73137 4.63643L1.45441 4.42919L1.78959 4.34372" fill="white" style="fill:white;fill-opacity:1;"/>
<path d="M1.78971 4.92909L1.45453 4.84362L1.73149 4.63638" fill="white" style="fill:white;fill-opacity:1;"/>
<path d="M1.95543 5.17731L1.61305 5.22661L1.78963 4.92916" fill="white" style="fill:white;fill-opacity:1;"/>
<path d="M2.49628 9.84718C3.11487 9.84718 3.61634 9.34571 3.61634 8.72712C3.61634 8.10852 3.11487 7.60706 2.49628 7.60706C1.87769 7.60706 1.37622 8.10852 1.37622 8.72712C1.37622 9.34571 1.87769 9.84718 2.49628 9.84718Z" fill="white" style="fill:white;fill-opacity:1;"/>
<path d="M2.78621 9.80896L2.49631 10.4931L2.20642 9.80896" fill="white" style="fill:white;fill-opacity:1;"/>
<path d="M2.20635 7.64526L2.49624 6.9611L2.78613 7.64526" fill="white" style="fill:white;fill-opacity:1;"/>
<path d="M1.41431 9.01704L0.730148 8.72715L1.41431 8.43726" fill="white" style="fill:white;fill-opacity:1;"/>
<path d="M3.57812 8.4373L4.26228 8.7272L3.57812 9.01709" fill="white" style="fill:white;fill-opacity:1;"/>
<path d="M2.20645 9.80906L1.61332 10.2566L1.70435 9.51917" fill="white" style="fill:white;fill-opacity:1;"/>
<path d="M2.78622 7.64529L3.37936 7.19774L3.28833 7.93518" fill="white" style="fill:white;fill-opacity:1;"/>
<path d="M1.41433 8.43729L0.966778 7.84416L1.70422 7.93518" fill="white" style="fill:white;fill-opacity:1;"/>
<path d="M3.5781 9.01706L4.02565 9.61019L3.28821 9.51917" fill="white" style="fill:white;fill-opacity:1;"/>
<path d="M1.7042 9.5192L0.966754 9.61022L1.41431 9.01709" fill="white" style="fill:white;fill-opacity:1;"/>
<path d="M3.28823 7.93527L4.02568 7.84424L3.57812 8.43738" fill="white" style="fill:white;fill-opacity:1;"/>
<path d="M1.70431 7.93516L1.61329 7.19771L2.20642 7.64526" fill="white" style="fill:white;fill-opacity:1;"/>
<path d="M3.28824 9.51919L3.37927 10.2566L2.78613 9.80908" fill="white" style="fill:white;fill-opacity:1;"/>
</g>
<defs>
<clipPath id="clip0_190_2090">
<rect width="9.84403" height="12" fill="white" style="fill:white;fill-opacity:1;" transform="translate(0.0780029)"/>
</clipPath>
</defs>
</svg>
