<svg width="18" height="10" viewBox="0 0 18 10" fill="none" xmlns="http://www.w3.org/2000/svg">
<g clip-path="url(#clip0_190_779)">
<path d="M17 1H1V9H17V1Z" fill="#ED1C24" style="fill:#ED1C24;fill:color(display-p3 0.9294 0.1098 0.1412);fill-opacity:1;"/>
<path d="M17 1H1V6.33333H17V1Z" fill="#005DA4" style="fill:#005DA4;fill:color(display-p3 0.0000 0.3647 0.6431);fill-opacity:1;"/>
<path d="M17 1H1V3.66667H17V1Z" fill="white" style="fill:white;fill-opacity:1;"/>
<g clip-path="url(#clip1_190_779)">
<path d="M5.95095 3.80595L6.03495 2.56618C5.71147 2.41289 5.35798 2.33337 5.00002 2.33337C4.64206 2.33337 4.28857 2.41289 3.96509 2.56618L4.04909 3.80595C4.06751 4.07802 4.16838 4.33802 4.33826 4.55134C4.50814 4.76465 4.73897 4.92115 5.00002 5C5.26107 4.92115 5.4919 4.76465 5.66178 4.55134C5.83166 4.33802 5.93253 4.07802 5.95095 3.80595Z" fill="#005DA4" style="fill:#005DA4;fill:color(display-p3 0.0000 0.3647 0.6431);fill-opacity:1;"/>
<path d="M4.22388 3.97395C4.26813 4.17311 4.36272 4.35758 4.49862 4.50974C4.63451 4.6619 4.80717 4.77665 5.00008 4.84304C5.19298 4.77665 5.36564 4.6619 5.50154 4.50974C5.63743 4.35758 5.73203 4.17311 5.77628 3.97395L5.38818 3.45649L5.23294 3.66347L5.00008 3.19775L4.76722 3.66347L4.61198 3.45649L4.22388 3.97395Z" fill="white" style="fill:white;fill-opacity:1;"/>
<path d="M4.25854 4.10327C4.27553 4.1327 4.29815 4.15849 4.32511 4.17917C4.35206 4.19986 4.38283 4.21503 4.41565 4.22382C4.44847 4.23262 4.4827 4.23486 4.51639 4.23043C4.55007 4.22599 4.58256 4.21497 4.61198 4.19798C4.65132 4.17527 4.69593 4.16331 4.74135 4.16331C4.78677 4.16331 4.83138 4.17527 4.87072 4.19798C4.91005 4.22068 4.95467 4.23264 5.00008 4.23264C5.0455 4.23264 5.09012 4.22068 5.12945 4.19798C5.16878 4.17527 5.2134 4.16331 5.25882 4.16331C5.30423 4.16331 5.34885 4.17527 5.38818 4.19798C5.41761 4.21497 5.45009 4.22599 5.48378 4.23043C5.51746 4.23486 5.5517 4.23262 5.58452 4.22382C5.61734 4.21503 5.6481 4.19986 5.67506 4.17917C5.70201 4.15849 5.72463 4.1327 5.74162 4.10327V4.17796C5.72463 4.20738 5.70201 4.23318 5.67506 4.25386C5.6481 4.27455 5.61734 4.28972 5.58452 4.29851C5.5517 4.30731 5.51746 4.30955 5.48378 4.30511C5.45009 4.30068 5.41761 4.28965 5.38818 4.27266C5.34885 4.24996 5.30423 4.238 5.25882 4.238C5.2134 4.238 5.16878 4.24996 5.12945 4.27266C5.09012 4.29537 5.0455 4.30733 5.00008 4.30733C4.95467 4.30733 4.91005 4.29537 4.87072 4.27266C4.83138 4.24996 4.78677 4.238 4.74135 4.238C4.69593 4.238 4.65132 4.24996 4.61198 4.27266C4.58256 4.28965 4.55007 4.30068 4.51639 4.30511C4.4827 4.30955 4.44847 4.30731 4.41565 4.29851C4.38283 4.28972 4.35206 4.27455 4.32511 4.25386C4.29815 4.23318 4.27553 4.20738 4.25854 4.17796V4.10327Z" fill="#005DA4" style="fill:#005DA4;fill:color(display-p3 0.0000 0.3647 0.6431);fill-opacity:1;"/>
<path d="M4.25854 4.25269C4.27553 4.28211 4.29815 4.3079 4.32511 4.32859C4.35206 4.34927 4.38283 4.36444 4.41565 4.37324C4.44847 4.38203 4.4827 4.38428 4.51639 4.37984C4.55007 4.37541 4.58256 4.36438 4.61198 4.34739C4.65132 4.32468 4.69593 4.31273 4.74135 4.31273C4.78677 4.31273 4.83138 4.32468 4.87072 4.34739C4.91005 4.3701 4.95467 4.38205 5.00008 4.38205C5.0455 4.38205 5.09012 4.3701 5.12945 4.34739C5.16878 4.32468 5.2134 4.31273 5.25882 4.31273C5.30423 4.31273 5.34885 4.32468 5.38818 4.34739C5.41761 4.36438 5.45009 4.37541 5.48378 4.37984C5.51746 4.38428 5.5517 4.38203 5.58452 4.37324C5.61734 4.36444 5.6481 4.34927 5.67506 4.32859C5.70201 4.3079 5.72463 4.28211 5.74162 4.25269V4.32737C5.72463 4.3568 5.70201 4.38259 5.67506 4.40327C5.6481 4.42396 5.61734 4.43913 5.58452 4.44793C5.5517 4.45672 5.51746 4.45896 5.48378 4.45453C5.45009 4.45009 5.41761 4.43907 5.38818 4.42208C5.34885 4.39937 5.30423 4.38741 5.25882 4.38741C5.2134 4.38741 5.16878 4.39937 5.12945 4.42208C5.09012 4.44479 5.0455 4.45674 5.00008 4.45674C4.95467 4.45674 4.91005 4.44479 4.87072 4.42208C4.83138 4.39937 4.78677 4.38741 4.74135 4.38741C4.69593 4.38741 4.65132 4.39937 4.61198 4.42208C4.58256 4.43907 4.55007 4.45009 4.51639 4.45453C4.4827 4.45896 4.44847 4.45672 4.41565 4.44793C4.38283 4.43913 4.35206 4.42396 4.32511 4.40327C4.29815 4.38259 4.27553 4.3568 4.25854 4.32737V4.25269Z" fill="#005DA4" style="fill:#005DA4;fill:color(display-p3 0.0000 0.3647 0.6431);fill-opacity:1;"/>
<path d="M5.00004 2.84204L5.01945 2.90545L5.08407 2.89055L5.03885 2.93907L5.08407 2.98758L5.01945 2.97268L5.00004 3.03609L4.98064 2.97268L4.91602 2.98758L4.96123 2.93907L4.91602 2.89055L4.98064 2.90545L5.00004 2.84204Z" fill="#FFDD00" style="fill:#FFDD00;fill:color(display-p3 1.0000 0.8667 0.0000);fill-opacity:1;"/>
<path d="M4.7089 2.45386L4.72831 2.51727L4.79293 2.50237L4.74771 2.55088L4.79293 2.59939L4.72831 2.58449L4.7089 2.64791L4.6895 2.58449L4.62488 2.59939L4.67009 2.55088L4.62488 2.50237L4.6895 2.51727L4.7089 2.45386Z" fill="#FFDD00" style="fill:#FFDD00;fill:color(display-p3 1.0000 0.8667 0.0000);fill-opacity:1;"/>
<path d="M5.29106 2.45386L5.31046 2.51727L5.37508 2.50237L5.32987 2.55088L5.37508 2.59939L5.31046 2.58449L5.29106 2.64791L5.27165 2.58449L5.20703 2.59939L5.25225 2.55088L5.20703 2.50237L5.27165 2.51727L5.29106 2.45386Z" fill="#FFDD00" style="fill:#FFDD00;fill:color(display-p3 1.0000 0.8667 0.0000);fill-opacity:1;"/>
<path d="M4.03771 2.5332L4.12361 3.80091C4.14077 4.05397 4.23346 4.29606 4.38971 4.49586C4.54596 4.69567 4.75856 4.84399 5.00002 4.92165C5.24148 4.84399 5.45408 4.69567 5.61033 4.49586C5.76658 4.29606 5.85927 4.05397 5.87644 3.80091L5.96233 2.5332C5.98636 2.54458 6.01057 2.55557 6.03495 2.56615L5.95095 3.80591C5.93253 4.07798 5.83166 4.33799 5.66178 4.5513C5.4919 4.76461 5.26107 4.92112 5.00002 4.99996C4.73897 4.92112 4.50814 4.76461 4.33826 4.5513C4.16838 4.33799 4.06751 4.07798 4.04909 3.80591L3.96509 2.56615C3.98947 2.55557 4.01368 2.54458 4.03771 2.5332Z" fill="#ED1C24" style="fill:#ED1C24;fill:color(display-p3 0.9294 0.1098 0.1412);fill-opacity:1;"/>
</g>
</g>
<rect x="0.95" y="0.95" width="16.1" height="8.1" stroke="black" stroke-opacity="0.25" style="stroke:black;stroke-opacity:0.25;" stroke-width="0.1"/>
<defs>
<clipPath id="clip0_190_779">
<rect x="1" y="1" width="16" height="8" fill="white" style="fill:white;fill-opacity:1;"/>
</clipPath>
<clipPath id="clip1_190_779">
<rect width="2.06992" height="2.66657" fill="white" style="fill:white;fill-opacity:1;" transform="translate(3.96497 2.33337)"/>
</clipPath>
</defs>
</svg>
