<svg width="16" height="8" viewBox="0 0 16 8" fill="none" xmlns="http://www.w3.org/2000/svg">
<g clip-path="url(#clip0_190_994)">
<path d="M16 0H0V8H16V0Z" fill="#0038A8" style="fill:#0038A8;fill:color(display-p3 0.0000 0.2196 0.6588);fill-opacity:1;"/>
<path d="M16 4H0V8H16V4Z" fill="#CE1126" style="fill:#CE1126;fill:color(display-p3 0.8078 0.0667 0.1490);fill-opacity:1;"/>
<path d="M6.9282 4L0 8V0" fill="white" style="fill:white;fill-opacity:1;"/>
<path d="M2.48896 4.79995C2.93079 4.79995 3.28896 4.44178 3.28896 3.99995C3.28896 3.55812 2.93079 3.19995 2.48896 3.19995C2.04714 3.19995 1.68896 3.55812 1.68896 3.99995C1.68896 4.44178 2.04714 4.79995 2.48896 4.79995Z" fill="#FCD116" style="fill:#FCD116;fill:color(display-p3 0.9882 0.8196 0.0863);fill-opacity:1;"/>
<path d="M0.800049 3.99988L0.903935 4.10377L2.48894 3.99988L0.903935 3.896L0.800049 3.99988Z" fill="#FCD116" style="fill:#FCD116;fill:color(display-p3 0.9882 0.8196 0.0863);fill-opacity:1;"/>
<path d="M0.977783 4.19882L1.06256 4.28359L2.48889 3.99988L0.977783 4.19882Z" fill="#FCD116" style="fill:#FCD116;fill:color(display-p3 0.9882 0.8196 0.0863);fill-opacity:1;"/>
<path d="M0.977783 3.80094L1.06256 3.71616L2.48889 3.99988L0.977783 3.80094Z" fill="#FCD116" style="fill:#FCD116;fill:color(display-p3 0.9882 0.8196 0.0863);fill-opacity:1;"/>
<path d="M1.29471 2.80576L1.29471 2.95268L2.48893 3.99998L1.44162 2.80576L1.29471 2.80576Z" fill="#FCD116" style="fill:#FCD116;fill:color(display-p3 0.9882 0.8196 0.0863);fill-opacity:1;"/>
<path d="M1.27974 3.07207L1.27974 3.19196L2.48893 3.99991L1.27974 3.07207Z" fill="#FCD116" style="fill:#FCD116;fill:color(display-p3 0.9882 0.8196 0.0863);fill-opacity:1;"/>
<path d="M1.56108 2.79072L1.68097 2.79072L2.48893 3.99991L1.56108 2.79072Z" fill="#FCD116" style="fill:#FCD116;fill:color(display-p3 0.9882 0.8196 0.0863);fill-opacity:1;"/>
<path d="M2.48889 2.31104L2.385 2.41492L2.48889 3.99992L2.59277 2.41492L2.48889 2.31104Z" fill="#FCD116" style="fill:#FCD116;fill:color(display-p3 0.9882 0.8196 0.0863);fill-opacity:1;"/>
<path d="M2.29007 2.48877L2.2053 2.57354L2.48901 3.99988L2.29007 2.48877Z" fill="#FCD116" style="fill:#FCD116;fill:color(display-p3 0.9882 0.8196 0.0863);fill-opacity:1;"/>
<path d="M2.68796 2.48877L2.77273 2.57354L2.48901 3.99988L2.68796 2.48877Z" fill="#FCD116" style="fill:#FCD116;fill:color(display-p3 0.9882 0.8196 0.0863);fill-opacity:1;"/>
<path d="M3.68313 2.80569L3.53622 2.80569L2.48891 3.99992L3.68313 2.95261L3.68313 2.80569Z" fill="#FCD116" style="fill:#FCD116;fill:color(display-p3 0.9882 0.8196 0.0863);fill-opacity:1;"/>
<path d="M3.4167 2.79072L3.29681 2.79072L2.48886 3.99991L3.4167 2.79072Z" fill="#FCD116" style="fill:#FCD116;fill:color(display-p3 0.9882 0.8196 0.0863);fill-opacity:1;"/>
<path d="M3.69805 3.07207L3.69805 3.19196L2.48886 3.99991L3.69805 3.07207Z" fill="#FCD116" style="fill:#FCD116;fill:color(display-p3 0.9882 0.8196 0.0863);fill-opacity:1;"/>
<path d="M4.17773 4L4.07385 3.89611L2.48885 4L4.07385 4.10388L4.17773 4Z" fill="#FCD116" style="fill:#FCD116;fill:color(display-p3 0.9882 0.8196 0.0863);fill-opacity:1;"/>
<path d="M4 3.80106L3.91523 3.71628L2.48889 4L4 3.80106Z" fill="#FCD116" style="fill:#FCD116;fill:color(display-p3 0.9882 0.8196 0.0863);fill-opacity:1;"/>
<path d="M4 4.19894L3.91523 4.28372L2.48889 4L4 4.19894Z" fill="#FCD116" style="fill:#FCD116;fill:color(display-p3 0.9882 0.8196 0.0863);fill-opacity:1;"/>
<path d="M3.68308 5.19412L3.68308 5.0472L2.48885 3.99989L3.53616 5.19412L3.68308 5.19412Z" fill="#FCD116" style="fill:#FCD116;fill:color(display-p3 0.9882 0.8196 0.0863);fill-opacity:1;"/>
<path d="M3.69805 4.92781L3.69805 4.80792L2.48886 3.99996L3.69805 4.92781Z" fill="#FCD116" style="fill:#FCD116;fill:color(display-p3 0.9882 0.8196 0.0863);fill-opacity:1;"/>
<path d="M3.4167 5.20915L3.29681 5.20915L2.48886 3.99996L3.4167 5.20915Z" fill="#FCD116" style="fill:#FCD116;fill:color(display-p3 0.9882 0.8196 0.0863);fill-opacity:1;"/>
<path d="M2.4889 5.68884L2.59278 5.58496L2.4889 3.99995L2.38501 5.58496L2.4889 5.68884Z" fill="#FCD116" style="fill:#FCD116;fill:color(display-p3 0.9882 0.8196 0.0863);fill-opacity:1;"/>
<path d="M2.68771 5.51111L2.77249 5.42633L2.48877 4L2.68771 5.51111Z" fill="#FCD116" style="fill:#FCD116;fill:color(display-p3 0.9882 0.8196 0.0863);fill-opacity:1;"/>
<path d="M2.28983 5.51111L2.20505 5.42633L2.48877 4L2.28983 5.51111Z" fill="#FCD116" style="fill:#FCD116;fill:color(display-p3 0.9882 0.8196 0.0863);fill-opacity:1;"/>
<path d="M1.29465 5.19419L1.44157 5.19419L2.48888 3.99996L1.29465 5.04727L1.29465 5.19419Z" fill="#FCD116" style="fill:#FCD116;fill:color(display-p3 0.9882 0.8196 0.0863);fill-opacity:1;"/>
<path d="M1.56108 5.20915L1.68097 5.20915L2.48893 3.99996L1.56108 5.20915Z" fill="#FCD116" style="fill:#FCD116;fill:color(display-p3 0.9882 0.8196 0.0863);fill-opacity:1;"/>
<path d="M1.27974 4.92781L1.27974 4.80792L2.48893 3.99996L1.27974 4.92781Z" fill="#FCD116" style="fill:#FCD116;fill:color(display-p3 0.9882 0.8196 0.0863);fill-opacity:1;"/>
<path d="M6.12823 4L5.82761 4.1045L5.82112 4.42269L5.62885 4.16908L5.32422 4.26124L5.506 4H6.12823Z" fill="#FCD116" style="fill:#FCD116;fill:color(display-p3 0.9882 0.8196 0.0863);fill-opacity:1;"/>
<path d="M6.12823 4L5.82761 3.8955L5.82112 3.57731L5.62885 3.83092L5.32422 3.73876L5.506 4H6.12823Z" fill="#FCD116" style="fill:#FCD116;fill:color(display-p3 0.9882 0.8196 0.0863);fill-opacity:1;"/>
<path d="M0.399998 7.30725L0.459812 6.99466L0.187488 6.82995L0.503264 6.79024L0.575763 6.48034L0.711109 6.76839L0.399998 7.30725Z" fill="#FCD116" style="fill:#FCD116;fill:color(display-p3 0.9882 0.8196 0.0863);fill-opacity:1;"/>
<path d="M0.399998 7.30725L0.640803 7.09916L0.919612 7.25264L0.796113 6.95931L1.02824 6.74158L0.711109 6.76839L0.399998 7.30725Z" fill="#FCD116" style="fill:#FCD116;fill:color(display-p3 0.9882 0.8196 0.0863);fill-opacity:1;"/>
<path d="M0.399998 0.692869L0.640803 0.900965L0.919612 0.747483L0.796113 1.04081L1.02824 1.25854L0.711109 1.23173L0.399998 0.692869Z" fill="#FCD116" style="fill:#FCD116;fill:color(display-p3 0.9882 0.8196 0.0863);fill-opacity:1;"/>
<path d="M0.399998 0.692869L0.459812 1.00546L0.187488 1.17017L0.503264 1.20988L0.575763 1.51978L0.711109 1.23173L0.399998 0.692869Z" fill="#FCD116" style="fill:#FCD116;fill:color(display-p3 0.9882 0.8196 0.0863);fill-opacity:1;"/>
</g>
<defs>
<clipPath id="clip0_190_994">
<rect width="16" height="8" fill="white" style="fill:white;fill-opacity:1;"/>
</clipPath>
</defs>
</svg>
