<svg width="16" height="10" viewBox="0 0 16 10" fill="none" xmlns="http://www.w3.org/2000/svg">
<g clip-path="url(#clip0_190_541)">
<path d="M16 0H0V10H16V0Z" fill="#EE1C25" style="fill:#EE1C25;fill:color(display-p3 0.9333 0.1098 0.1451);fill-opacity:1;"/>
<path d="M16 0H0V6.66667H16V0Z" fill="#0B4EA2" style="fill:#0B4EA2;fill:color(display-p3 0.0431 0.3059 0.6353);fill-opacity:1;"/>
<path d="M16 0H0V3.33333H16V0Z" fill="white" style="fill:white;fill-opacity:1;"/>
<path d="M5.6222 7.72502C4.66609 7.29327 3.29846 6.43631 3.29846 4.74114C3.29846 3.04596 3.38492 2.27502 3.38492 2.27502H5.6222H7.85953C7.85953 2.27502 7.946 3.04596 7.946 4.74114C7.946 6.43631 6.57837 7.29327 5.6222 7.72502Z" fill="white" style="fill:white;fill-opacity:1;"/>
<path d="M5.62221 7.5C4.74506 7.1039 3.49036 6.3177 3.49036 4.76248C3.49036 3.20727 3.56967 2.5 3.56967 2.5H5.62222H7.67482C7.67482 2.5 7.75416 3.20728 7.75416 4.76248C7.75416 6.3177 6.49943 7.1039 5.62221 7.5Z" fill="#EE1C25" style="fill:#EE1C25;fill:color(display-p3 0.9333 0.1098 0.1451);fill-opacity:1;"/>
<path d="M5.80985 4.35474C6.04736 4.35834 6.51075 4.36705 6.92336 4.23762C6.92336 4.23762 6.91247 4.37604 6.91247 4.53729C6.91247 4.69858 6.92336 4.83699 6.92336 4.83699C6.54489 4.71824 6.0775 4.71578 5.80985 4.71896V5.57795H5.43468V4.71896C5.16705 4.71578 4.69966 4.71825 4.32117 4.83699C4.32117 4.83699 4.33206 4.69857 4.33206 4.53728C4.33206 4.37603 4.32117 4.23761 4.32117 4.23761C4.73379 4.36705 5.19717 4.35833 5.43468 4.35473V3.81527C5.21821 3.81347 4.90627 3.82315 4.55356 3.93381C4.55356 3.93381 4.56446 3.79539 4.56446 3.63411C4.56446 3.47285 4.55356 3.33442 4.55356 3.33442C4.90574 3.4449 5.21731 3.45474 5.43372 3.45299C5.42259 3.11135 5.31644 2.68079 5.31644 2.68079C5.31644 2.68079 5.53491 2.69677 5.62224 2.69677C5.70967 2.69677 5.92808 2.68079 5.92808 2.68079C5.92808 2.68079 5.82195 3.11136 5.81081 3.45295C6.02724 3.45472 6.33879 3.44487 6.69096 3.33439C6.69096 3.33439 6.68006 3.47282 6.68006 3.63408C6.68006 3.79536 6.69096 3.93378 6.69096 3.93378C6.33827 3.82313 6.02632 3.81344 5.80985 3.81524L5.80985 4.35474Z" fill="white" style="fill:white;fill-opacity:1;"/>
<path d="M5.6222 5.48486C5.18048 5.48486 4.94387 6.05934 4.94387 6.05934C4.94387 6.05934 4.81261 5.78695 4.45221 5.78695C4.20836 5.78695 4.02866 5.9903 3.91443 6.17861C4.35806 6.84036 5.06586 7.24873 5.6222 7.49996C6.17862 7.24871 6.88689 6.84045 7.33054 6.17861C7.2163 5.9903 7.0366 5.78695 6.79276 5.78695C6.43234 5.78695 6.30054 6.05934 6.30054 6.05934C6.30054 6.05934 6.06396 5.48486 5.6222 5.48486Z" fill="#0B4EA2" style="fill:#0B4EA2;fill:color(display-p3 0.0431 0.3059 0.6353);fill-opacity:1;"/>
</g>
<defs>
<clipPath id="clip0_190_541">
<rect width="16" height="10" fill="white" style="fill:white;fill-opacity:1;"/>
</clipPath>
</defs>
</svg>
