<svg id="图层_1" data-name="图层 1" xmlns="http://www.w3.org/2000/svg" viewBox="0 0 256 256"><defs><style>.cls-1{fill:#f0001a;}.cls-2,.cls-3{fill:#fff;}.cls-2{opacity:0.3;}</style></defs><title>文件图标－转区</title><path class="cls-1" d="M218,256H38a20.06,20.06,0,0,1-20-20V20A20.06,20.06,0,0,1,38,0H158l80,80V236A20.06,20.06,0,0,1,218,256Z"/><path class="cls-2" d="M238,80H178a20.06,20.06,0,0,1-20-20V0Z"/><path class="cls-3" d="M71.55,197.25H59.46V216H54.59V170.44h17c8.32,0,14.08,5.18,14.08,13.38S79.87,197.25,71.55,197.25ZM71.1,174.79H59.46V192.9H71.1c5.7,0,9.66-3.07,9.66-9.09S76.8,174.79,71.1,174.79Z"/><path class="cls-3" d="M123.64,211.78c-2.75,2.75-6.78,4.22-11.52,4.22H96.51V170.44h15.62c4.74,0,8.77,1.47,11.52,4.22,4.73,4.74,4.48,11.71,4.48,18S128.38,207,123.64,211.78Zm-3.39-33.66c-2.37-2.43-5.44-3.33-9-3.33h-9.92v36.86h9.92c3.52,0,6.59-.9,9-3.33,3.14-3.26,3-10,3-15.61S123.39,181.38,120.25,178.12Z"/><path class="cls-3" d="M146,174.79v16.77h20v4.35H146V216h-4.86V170.44h28.29v4.35H146Z"/></svg>